<svg width="99" height="99" viewBox="0 0 99 99" fill="none" xmlns="http://www.w3.org/2000/svg">
<g id="Frame 11" clip-path="url(#clip0_0_1)">
<rect width="99" height="99" rx="15" ry="15" fill="#f4f3ee"/>
<g id="image 8 [Vectorized]">
<path id="Vector" d="M14.1583 25.312C14.329 25.3194 16.0688 25.8468 16.3783 25.9276C18.0518 26.3779 19.7745 26.6191 21.5072 26.6461C29.0766 26.6953 37.314 23.6815 43.9616 28.8318C44.8637 29.5306 45.6688 30.4206 46.6015 31.0768L46.6952 31.1419C47.9137 31.2776 49.0494 31.2581 50.4253 31.4502C56.3039 32.2714 63.5206 34.3647 67.9011 38.4613C69.0982 39.5808 68.9447 40.9959 70.874 42.2716C74.2436 44.4996 77.5504 46.4274 81.0424 48.4326C84.0762 50.3099 88.8078 52.2296 91.4429 54.5726C93.0375 55.9902 88.2775 57.9627 87.375 58.4044C86.4996 58.8328 85.3373 59.6982 84.2567 60.1692C83.7397 60.3983 83.1934 60.5543 82.6334 60.6327C79.1583 61.1118 70.666 58.4053 66.9289 57.5879C58.8406 55.8188 50.2594 53.6059 42.9255 59.0514C37.3331 63.2038 36.7346 70.3582 40.887 75.7996C37.2066 73.6654 36.0824 72.4532 34.1138 68.658C33.7591 73.7653 34.7059 78.8057 38.7227 82.4298C39.4496 83.0856 40.351 83.6147 41.1629 84.1733C35.6645 83.0978 33.5232 82.3527 30.5047 77.3084C31.1776 81.6535 32.4116 84.2432 34.9545 87.8198C36.1499 89.5009 37.0369 90.8793 37.8082 92.8122C38.8189 95.3454 38.5164 97.3541 39.0039 99.9031C38.5213 99.1429 38.0843 98.0851 37.6683 97.2493C36.6911 95.2855 35.5766 94.2416 33.9966 92.8104C35.1542 96.5744 35.4052 98.4468 34.9076 102.366C29.0898 101.433 25.3801 101.119 19.7305 98.7658C12.7412 96.1271 6.08349 91.8958 0.942255 86.4551C-0.434038 84.9987 -2.34158 82.592 -4.16357 81.9776C-0.960368 79.9007 3.60527 74.6237 5.91039 71.5587C7.62493 69.2791 8.891 66.5834 11.2843 64.8952C7.19901 65.8124 2.89842 67.5408 -0.342707 70.211C-1.44979 71.1232 -2.2743 72.0858 -3.31865 73.0368C-2.98721 71.8445 -2.65438 70.7456 -2.24684 69.6003C0.708947 61.2932 9.05288 58.7289 14.7621 52.9874C15.841 51.9025 16.6978 51.2722 18.0206 50.4859C14.1496 51.3004 10.3322 52.3098 7.06497 54.6319C10.262 48.5015 14.2039 43.9249 20.6069 40.9983C16.6184 41.6689 14.0116 41.62 10.634 39.4156C13.7522 39.7954 16.6804 39.2337 19.4802 37.8092C15.4845 37.2958 11.9833 37.0338 8.54053 34.581C7.9851 34.1851 6.52302 32.8698 6.4085 32.2165C6.67772 32.138 8.05036 32.7377 8.63703 32.8847C9.6005 33.1172 10.5816 33.2695 11.5703 33.3401C15.8934 33.664 19.5668 32.1165 24.3985 32.8076C28.2911 33.3644 31.6304 34.9853 35.2356 35.2455C32.1256 38.0186 31.4872 38.1761 27.4101 39.1375C33.0449 40.563 36.6991 37.8726 41.5086 36.5221C38.267 31.509 33.3681 31.535 28.0359 31.3483C23.5412 31.1908 16.2324 29.9429 14.1583 25.312ZM57.8861 39.4973C59.9242 40.4599 61.672 41.9513 63.6934 42.6227C64.602 42.8504 65.518 43.0471 66.4399 43.2121C65.1607 40.2199 64.9706 39.0395 61.3781 39.0213C60.0202 39.0887 59.2219 39.2389 57.8861 39.4973Z" fill="#141414"/>
</g>
<path id="Rectangle 10" d="M0 66.5L24 61.5V107H0V66.5Z" fill="#131414"/>
</g>
<defs>
<clipPath id="clip0_0_1">
<rect width="99" height="99" rx="15" ry="15"/>
</clipPath>
</defs>
</svg>
