<svg width="1307" height="201" viewBox="0 0 1307 201" fill="none" xmlns="http://www.w3.org/2000/svg">
<path fill-rule="evenodd" clip-rule="evenodd" d="M923.559 0.648665C918.24 9.51903 909.759 15.3283 900.49 19.2889C889.214 24.1096 876.093 23.4968 864.55 24.2579H856.214L856.55 22.4423C856.886 20.5312 859.232 4.1777 859.232 3.55822C859.232 3.36711 854.635 3.27155 849.077 3.31768L838.875 3.46267L837.824 7.5255C837.201 9.77275 836.143 14.1717 835.478 17.3745L834.183 23.1079L816.89 22.9201C776.852 22.4423 760.9 25.5957 749.885 36.2092C745.67 40.3215 745.525 40.9409 748.83 42.2326C751.223 43.142 752.086 42.8554 751.654 41.2276C750.985 38.6476 754.435 35.2042 760.805 32.0508C771.392 26.7918 782.453 24.8807 805.588 24.3996C822.4 24.0668 834.041 24.4985 833.656 25.5002C833.224 26.6007 829.632 43.8571 828.15 51.986C826.187 62.6044 824.588 73.2867 823.355 84.0142C822.495 91.5204 822.159 93.0527 820.291 98.1172C817.658 105.241 815.279 109.657 811.78 115.917C804.231 129.483 798.263 135.042 796.078 136.215C792.517 134.841 793.179 126.125 796.25 110.454C800.174 90.5649 801.423 81.2431 801.423 71.8257C801.37 62.5007 799.743 56.5267 796.009 52.3188C792.559 48.3516 784.658 47.1587 779.099 49.6894C771.58 53.1822 763.869 61.6439 758.314 72.4946L756.254 76.5575V72.9724C756.205 61.8812 752.9 52.9878 747.918 50.5527C745.239 49.261 740.929 48.8294 738.197 49.5477C733.933 50.6944 728.473 55.9995 728.473 59.0145C728.473 60.1117 728.714 59.97 731.587 57.3406C736.286 53.0438 740.402 48.7371 741.166 56.385C741.693 61.6901 740.734 69.5324 737.337 87.1248C733.261 108.348 730.246 126.804 729.192 136.94L728.905 139.952H746.102C755.444 111.933 749.46 93.9885 768.324 65.6112C775.046 55.4953 781.663 50.612 784.618 51.0766C790.533 52.0058 784.888 79.7273 782.911 84.4953C778.028 104.668 777.043 116.237 778.479 124.557C780.298 135.025 783.122 138.897 789.59 139.952C793.182 140.525 798.405 139.807 801.611 138.228C806.257 135.981 811.717 128.765 818.614 115.664C820.34 112.461 821.872 109.976 822.017 110.167C822.205 110.309 822.35 111.265 822.35 112.223C822.35 113.225 822.69 115.904 823.069 118.247C825.161 130.34 829.566 139.952 839.158 139.952C841.834 139.952 845.851 138.792 850.138 136.617C853.252 135.035 859.136 129.625 862.969 124.508C864.692 122.214 866.228 120.349 866.369 120.349C866.56 120.349 867.038 121.354 867.47 122.596C868.761 126.135 871.687 130.722 874.462 133.543C877.866 137.049 884.07 140.073 889.076 139.952C896.269 139.777 903.521 136.426 908.615 131.394C917.473 122.498 926.237 106.2 934.192 83.777C937.589 74.2147 940.275 62.8862 942.383 49.1655L942.67 47.0138L945.257 49.8805C946.693 51.4127 948.417 53.8511 949.135 55.2844C950.377 57.7689 950.377 57.9139 949.804 61.4989C948.941 66.6129 947.745 70.198 943.962 79.2825C938.934 91.4743 937.401 97.735 936.584 109.881C936.06 117.529 937.642 127.378 940.176 132.3C941.425 134.693 944.344 137.319 947.125 138.61C949.04 139.434 951.916 139.961 954.806 139.952C957.804 139.938 960.813 139.345 962.787 138.419C969.489 135.312 975.525 129.911 980.939 122.26C982.616 119.871 984.053 117.163 984.145 117.403C984.244 117.641 983.859 122.692 983.335 127.378C982.135 137.942 981.513 146.499 980.89 160.987C980.603 167.149 980.076 174.135 979.69 176.524C977.535 189.717 973.707 196.123 966.329 198.703C960.632 200.713 962.019 201.813 968.293 200.285C980.076 197.365 987.358 191.058 993.773 178.29C996.314 173.271 998.083 167.917 1000.48 158.308C1003.54 146.021 1003.78 144.492 1009.15 103.379C1010.01 96.7333 1010.87 82.4458 1011.98 68.9623C1013.17 66.4745 1020.25 56.1379 1027.54 53.6764C1037.06 53.6369 1036.06 81.6418 1036.28 86.792L1030.61 93.0032C1023.57 100.173 1020.21 104.954 1017.72 111.456C1014.66 119.44 1013.55 128.811 1015.14 134.02C1016.29 137.909 1019.21 139.952 1023.47 139.952C1025.02 139.93 1026.57 139.704 1028.07 139.279C1035.11 137.418 1040.76 131.776 1045.98 121.305C1051.88 109.545 1055.8 91.1876 1054.99 79.2364L1054.7 75.1735L1058.15 71.3479C1067.3 61.1661 1074.33 51.6499 1076.68 46.1537C1077.35 44.6248 1077.98 43.3793 1078.12 43.3793C1078.26 43.3793 1078.74 43.9526 1079.18 44.671C1079.61 45.4354 1081.42 47.7321 1083.2 49.8344C1084.97 51.9366 1086.84 54.6122 1087.37 55.8083C1088.27 57.7689 1088.27 58.2467 1087.7 61.5484C1086.89 66.6129 1085.69 70.2013 1081.91 79.2825C1076.88 91.4743 1075.34 97.735 1074.53 109.881C1074 117.529 1075.58 127.378 1078.12 132.3C1079.37 134.693 1082.29 137.319 1085.07 138.61C1087.08 139.47 1088.63 139.698 1092.73 139.952C1098.02 139.589 1100.63 139.042 1106.38 135.17C1113.61 130.294 1121.8 119.585 1129.56 104.954L1132.1 100.223L1132.39 107.06C1133.11 124.03 1137.56 135.981 1144.22 138.897C1145.85 139.626 1147.63 139.986 1149.42 139.952C1156.49 139.952 1168.45 135.411 1175.81 117.578C1185.82 97.9755 1195.13 70.1057 1199.39 44.8621L1200.02 41.3232L1204.71 50.7899C1210.51 62.4545 1211.46 65.3212 1212.42 73.5919C1213.57 83.5365 1213.62 83.2498 1210.94 84.2548C1207.78 85.4015 1202.75 88.367 1199.35 91.1415C1188.86 99.5538 1181.77 115.14 1183.45 126.086C1185.84 141.352 1202.29 143.22 1213.67 136.696C1225.71 129.486 1232.71 114.009 1232.21 100.269C1232.06 95.1549 1231.82 93.6721 1230.48 89.7543C1229.62 87.2665 1228.85 84.9731 1228.71 84.6864C1228.56 84.3503 1230.19 83.7309 1233.16 83.0587C1236.18 82.345 1239.15 81.4684 1242.07 80.4325C1244.37 79.5692 1246.24 78.9958 1246.24 79.0914C1246.24 79.2364 1245.62 81.1475 1244.8 83.3453C1238.46 101.336 1238.55 135.427 1262.38 139.566C1263.52 139.76 1264.67 139.948 1265.82 139.952C1272.97 139.965 1279.83 136.228 1284.79 131.101C1289.77 126.083 1295.12 117.924 1299.67 108.843C1303.4 101.336 1306.48 93.6853 1306.48 92.4002C1306.48 91.2964 1304.28 90.3408 1303.18 90.9174C1302.7 91.2008 1301.93 92.4464 1301.46 93.6853C1299.61 98.6016 1294.35 110.237 1287.73 119.769C1281.52 128.719 1273.83 135.698 1269.27 135.925C1266.78 134.933 1264.09 132.36 1262.72 128.313C1260.21 120.863 1260.41 109.815 1260.84 105.119L1261.05 97.9854C1271.56 94.7562 1283.82 86.1429 1291.11 69.4829C1294.15 60.2238 1294.43 53.9268 1290.62 50.5955C1286.42 46.9281 1278.19 47.8441 1270.46 50.6647C1262.39 53.6138 1255.82 60.7411 1252.2 66.6854C1251.2 68.2638 1249.97 70.679 1248.97 71.6807C1246.77 73.8819 1238.1 78.1819 1232.35 79.9514C1230.1 80.6697 1227.99 81.2925 1227.7 81.3881C1227.37 81.5298 1227.08 81.4342 1227.08 81.1969C1227.08 80.7192 1222.2 72.5902 1218.79 67.4268C1213.76 59.7295 1210.79 52.0322 1210.79 46.5821C1210.79 44.3843 1211.94 40.7498 1214.68 34.2486C1219.27 23.3485 1219.37 20.4818 1215.2 18.4718C1213.57 17.7073 1211.8 17.3251 1208.73 17.1834C1204.81 16.9923 1204.42 17.0384 1203.27 18.0895C1200.11 21.0057 1198.82 24.5446 1197.34 34.0575C1194.85 50.2627 1190.95 63.5057 1184.68 81.9614C1176.8 105.469 1163.44 133.071 1155.97 134.04C1154.13 133.697 1153.19 131.147 1152.31 123.792C1151.5 116.764 1152.89 102.134 1156.43 80.2875C1157.92 71.1074 1161.41 51.2677 1162.04 49.116H1138.89L1138.28 53.2777C1136.65 62.1679 1135.17 72.1585 1134.16 80.5742C1133.2 88.367 1132.96 89.4182 1130.95 94.0544C1127.3 102.671 1120.21 114.86 1112.6 123.99C1105.07 133.012 1096.66 138.409 1093.54 137.965C1088.03 134.04 1090.7 129.806 1097.23 111.265C1101.11 100.078 1102.55 93.9127 1102.88 86.2615C1103.46 73.8324 1101.25 65.944 1094.41 55.8116C1091.1 50.981 1090.1 48.2099 1090.1 44.147C1090.1 40.3676 1091.2 36.832 1094.84 28.4625C1098.05 21.1968 1099.29 17.4239 1098.86 16.3234C1098.19 14.5539 1089.71 11.8289 1084.83 11.8289C1081.48 11.8289 1080.13 12.735 1078.6 15.9873C1076.44 20.5279 1075.68 23.589 1075.3 29.0358C1074.63 38.2159 1070.56 48.7832 1064.85 56.385C1064.35 57.044 1054.3 71.4237 1053.21 68.4779C1052.78 60.2303 1043.37 49.6136 1033.57 49.6136C1026.59 49.6136 1021.23 51.7653 1015.25 57.1659L1012.71 59.7295L1012.95 57.6272C1013.1 56.5267 1013.48 51.6038 1013.91 46.7271C1014.36 41.333 1014.47 33.7972 1016.33 26.7194C1018.33 19.0978 1022.55 11.931 1027.94 6.46778C1028.92 5.46278 1030.14 4.95863 1031.27 4.50391C1032.39 4.04919 1029.41 3.62083 1028.02 3.88444C1022.44 4.94216 1016.02 10.5735 1012.77 14.3892C999.336 27.7968 996.792 48.1637 992.864 66.3262C990.95 75.2691 986.587 100.269 985.921 106.246C985.536 109.449 983.908 112.606 979.213 119.153C971.542 129.832 960.473 137.8 955.943 137.975C953.784 136.538 953.046 135.223 952.954 133.055C952.806 129.509 954.17 123.209 959.086 111.064C962.965 99.8768 964.605 93.9127 964.942 86.2615C965.515 73.8324 963.31 65.944 956.463 55.8116C953.158 50.981 952.153 48.2099 952.153 44.147C952.153 40.3676 953.251 36.832 956.895 28.4625C960.101 21.1968 961.35 17.4239 960.918 16.3234C960.246 14.5045 951.768 11.8289 946.74 11.8289C944.107 11.8289 943.767 11.9706 942.383 13.4072C940.752 15.1734 938.502 20.5279 937.784 24.3535C936.825 29.3258 937.302 34.6803 939.266 41.5637C939.843 43.666 939.744 44.4304 938.307 51.8444C932.946 78.9497 921.354 107.68 909.571 123.17C903.426 131.19 895.775 136.053 893.125 135.872C882.746 131.819 884.136 109.571 884.907 101.132L885.24 97.9755L888.641 96.7333C899.178 92.8615 911.153 80.6203 915.176 69.4829C918.817 59.4428 918.29 52.3221 913.644 49.976C910.962 48.5921 904.352 48.3054 899.465 49.3071C888.832 51.5083 878.344 60.9717 872.165 73.8324C867.997 82.5315 865.315 92.3838 864.692 101.369L864.359 106.101L859.855 113.561C857.41 117.674 854.204 122.547 852.813 124.412C849.472 128.827 845.805 132.683 844.351 133.111C843.439 132.683 843.129 130.409 842.421 127.279C840.506 118.58 843.284 92.9571 849.65 60.3523C851.472 51.1722 855.881 26.7918 855.881 25.978C855.881 25.8824 862.059 25.6913 869.674 25.5496C882.548 25.2893 893.072 24.5018 900.786 21.7866C917.291 15.9774 923.928 5.76922 925.058 1.78876C925.588 -0.0729581 924.251 -0.530975 923.559 0.648665ZM910.003 64.9884C906.553 75.3152 900.137 83.2498 890.173 89.6093C888.067 90.9471 886.245 92.0477 886.199 92.0015C885.863 91.6193 888.384 79.3319 890.11 74.1685C891.445 70.1288 896.826 50.2858 908.375 51.2414C912.135 52.2661 911.146 61.5945 910.003 64.9884ZM1284.58 51.1656C1287.05 52.8494 1288.34 59.1397 1285.11 66.9589C1278.44 80.1656 1274.37 83.8001 1262.2 92.1333C1262.02 85.8661 1270.09 50.1276 1284.58 51.1656ZM1214.29 96.4927C1214.77 105.673 1214.29 110.263 1212.23 117.72C1209.55 127.209 1201.96 137.058 1197.49 136.304C1193.52 135.095 1191.66 132.195 1190.4 125.035C1189.02 116.665 1194.46 104.671 1203.23 96.1105C1206.92 92.5254 1212.61 88.2682 1213.43 88.5087C1213.72 88.5582 1214.1 92.0015 1214.29 96.4927ZM1035.97 100.078C1034.72 116.286 1031.13 129.098 1026.25 134.884C1024.81 136.554 1024.57 136.696 1023.57 136.172C1022.94 135.839 1021.89 134.36 1021.22 132.877C1019.45 129.147 1019.4 122.787 1021.03 117.482C1022.42 113.133 1025.67 106.296 1028.16 102.566C1030.37 99.2178 1036.02 92.4793 1036.31 92.8121C1036.45 92.911 1036.31 96.206 1035.97 100.078ZM710.146 3.69991C704.732 4.60935 696.785 7.37393 692.425 10.5767C688.402 13.5423 683.683 18.3894 681.433 22.8839C678.032 29.6717 677.189 37.1186 679.439 43.666C679.963 45.1487 680.754 46.2625 680.655 46.3119C680.619 46.3877 658.44 52.0289 652.861 58.161C646.093 64.3096 645.21 71.3479 648.848 78.0897C649.536 79.3978 650.014 80.1656 650.604 80.4556C650.815 80.5577 652.607 80.6038 653.474 80.5248C653.902 80.4852 654.054 80.0305 653.675 79.8295C652.782 79.355 651.77 78.3335 651.289 77.5789C647.391 71.46 650.93 62.1744 658.914 57.0012C666.453 52.1178 677.1 49.6399 681.742 48.1143C683.95 52.0618 687.525 55.2317 691.321 57.6272L686.639 59.2912C678.638 62.9751 671.218 68.8733 665.231 76.854C657.28 87.3258 652.304 100.654 652.93 110.787C653.454 119.585 656.041 125.608 661.642 131.154C668.516 138.007 675.399 139.833 683.39 139.952C686.069 139.991 688.873 139.494 691.842 139.391C692.603 141.415 694.534 146.591 695.641 148.73C698.557 154.371 702.9 157.02 703.19 155.722C703.282 155.317 702.607 154.12 701.539 152.417C698.907 148.163 695.391 139.635 695.687 138.538C695.707 138.492 711.79 133.592 718.822 119.871C723.277 112.365 725.333 105.146 725.386 96.9244C725.478 88.4626 723.419 83.8758 718.437 81.3386C711.784 77.9447 704.208 81.4342 699.424 86.3109C694.059 91.7149 690.56 99.0299 688.6 108.83C687.545 113.943 687.832 125.466 689.077 131.012C689.555 133.019 689.796 134.834 689.654 134.979C689.509 135.17 688.118 134.788 686.59 134.165C682.566 132.541 677.914 127.041 675.564 122.26C670.154 111.123 669.709 96.1599 675.264 82.8181C679.489 72.6825 685.848 64.5798 695.565 59.8514L699.272 61.1661C703.872 62.5501 710.179 62.6951 712.143 61.4034C713.006 60.8762 713.438 60.1611 713.438 59.3473C713.438 56.53 706.719 55.5645 704.686 55.5645L700.808 55.8116C697.569 53.5314 694.999 46.5327 694.659 44.1306C695.163 43.5407 696.814 43.3694 700.422 41.9954C705.223 40.1172 718.983 34.6638 727.808 26.8775C733.261 22.0667 737.937 15.6742 734.513 9.93091C729.982 2.31927 718.674 2.2995 710.146 3.69991ZM724.516 5.61106C731.366 6.90273 734.032 12.8306 731.205 18.9034C729.814 21.869 725.083 26.4986 720.292 29.7014C716.555 32.1398 705.922 37.6821 702.139 39.066C701.081 39.4516 699.071 40.216 697.635 40.7399C696.198 41.2638 694.251 42.1601 694.059 42.0184C693.176 34.8055 694.03 28.6536 694.824 26.1954C697.651 17.302 703.787 10.01 711.645 7.04771C716.288 5.27825 720.634 4.84989 724.516 5.61435V5.61106ZM708.228 57.9205C709.184 58.3027 709.131 59.3736 708.218 59.7097C706.271 60.2864 702.874 58.0721 702.874 57.5943C702.874 57.212 707.266 57.5383 708.228 57.9238V57.9205ZM714.7 83.1575C718.199 85.5465 720.018 92.0015 719.063 98.5983C717.432 109.307 711.494 120.494 703.447 127.855C699.855 131.203 694.778 134.597 694.251 134.07C693.532 133.305 692.715 126.277 692.715 120.59C692.669 109.782 694.778 101.419 699.664 93.0527C702.01 89.0162 709.197 79.4934 714.7 83.1575ZM1148.24 19.1868C1140.1 22.963 1138.28 34.6276 1144.94 40.4598C1147.48 42.661 1149.68 43.521 1153.08 43.5671C1158.11 43.6165 1162.37 40.7959 1164.62 35.9654C1166.87 31.2336 1165.72 24.683 1162.13 21.2891C1158.54 17.9446 1152.74 17.0845 1148.24 19.1868Z" fill="black"/>
<path fill-rule="evenodd" clip-rule="evenodd" d="M412.344 1.42624C397.644 5.01458 381.719 24.7818 381.113 39.949C380.968 42.7729 381.218 42.9014 382.082 42.9014C383.11 42.7367 382.823 41.6196 383.149 39.6162C385.924 22.5246 400.435 6.50066 413.813 3.22865C428.361 0.3125 439.294 8.85335 433.992 37.9325C431.406 52.2265 427.063 61.5154 419.589 68.3526C414.373 73.0284 411.925 74.8011 406.02 74.4387C401.961 74.1882 401.493 71.4929 399.371 71.4467C398.62 71.427 398.049 72.198 398.227 72.9724C398.227 74.3596 400.613 75.6743 405.114 76.9594C407.098 77.4306 408.123 77.6019 408.831 77.8688C412.301 80.383 410.228 94.2355 408.511 98.7234C405.226 114.892 405.602 124.211 409.958 131.622C413.266 137.246 419.645 139.816 426.621 139.951C430.552 140.027 434.674 139.694 438.543 137.8C442.431 135.704 448.355 130.05 452.379 124.84C453.723 123.021 455.176 120.817 455.222 120.863C455.321 120.909 454.29 124.728 453.819 127.595C453.123 131.799 452.946 135.503 452.824 139.951H471.718C474.716 131.635 476.667 113.373 478.229 100.121C479.791 86.8743 480.453 81.3946 481.125 70.3989C481.329 67.1466 481.043 62.7279 481.939 59.3834C485.603 45.7319 492.589 29.2862 501.508 18.1883C504.276 14.7087 508.122 10.7085 510.006 10.8205C511.295 10.9029 513.298 15.605 513.713 16.6792C519.918 32.746 513.288 87.0852 511.473 103.603C509.661 120.118 508.415 128.705 508.448 135.025L508.474 139.951H524.821C526.353 137.487 527.909 120.942 529.464 103.594C530.179 95.5997 530.476 87.418 531.497 80.3995C532.835 74.3167 534.568 68.8733 535.84 65.0609C540.245 51.986 551.999 30.9271 557.225 25.8659C562.547 20.7091 563.601 20.2445 564.547 20.3169C573.348 24.2974 565.568 58.843 560.059 87.988C556.622 111.294 558.194 131.977 563.515 136.762C565.845 138.884 568.708 140.106 572.956 139.951C574.098 139.931 575.237 139.812 576.36 139.596C588.769 137.042 594.09 128.672 601.28 113.808C604.595 106.955 612.332 91.4709 612.688 84.0241C612.859 80.4456 611.531 77.9216 609.828 77.6151C607.992 77.2856 604.813 80.0008 603.798 83.9779C596.555 112.319 582.189 132.393 579.75 133.127C577.595 131.799 576.831 121.901 580.3 103.617C585.566 71.4896 587.118 51.986 584.577 37.2141C582.95 27.889 578.926 20.6728 573.997 18.2839C569.203 15.9411 562.303 16.4123 556.843 19.9973C545.307 27.576 537.586 45.4452 532.219 57.9138L532.291 47.8737C531.958 37.5008 532.13 36.6869 530.647 28.7985C529.016 20.1094 526.149 8.32943 515.99 6.52373C500.082 3.43294 491.284 18.2806 485.692 29.441C485.521 29.787 481.277 39.547 481.254 39.5306C481.099 38.8584 481.372 28.9435 477.504 20.7486C474.848 14.4715 469.741 11.4037 464.274 11.1467C461.009 10.9919 457.644 12.1385 454.652 14.2672C452.642 15.7005 452.833 16.6067 455.183 16.6067C456.666 16.6067 457.239 16.3694 457.816 15.4633C459.539 12.8338 463.849 11.7069 466.752 13.8355C472.693 18.0071 472.39 32.2418 465.394 67.2817C464.198 73.2129 462.771 79.4274 462.485 81.1475C460.472 92.3343 455.186 109.116 451.258 115.759C444.856 126.995 433.88 136.156 429.201 136.604C427.237 136.604 424.862 134.406 423.715 131.249C422.993 129.051 422.585 127.664 422.772 121.305C423.428 108.161 426.117 91.2634 417.803 80.1457L416.172 77.8985L418.426 77.3252C437.142 71.1007 450.349 54.4639 451.13 38.028C452.125 17.0219 433.603 -3.14404 412.344 1.42624ZM301.507 115.634C305.306 123.611 311.175 131.256 317.126 134.884C323.238 138.963 329.225 139.645 334.932 139.951C352.268 140.874 362.828 127.875 372.348 114.853L374.612 110.642C373.962 115.963 373.02 121.034 372.275 126.326C371.636 130.874 371.013 135.325 370.737 139.951H383.64C383.782 139.523 384.823 133.618 385.459 130.297C388.467 114.569 389.314 108.454 391.746 89.5137C394.333 67.2389 395.005 62.4083 397.974 46.2492C400.656 31.2863 405.684 15.9872 409.039 12.4022C410.235 11.0644 409.918 9.64747 408.673 9.64747C404.791 9.64747 397.97 18.5178 391.693 31.7575C381.057 56.5628 379.765 74.1092 377.043 94.7693C374.654 100.513 369.916 107.722 364.927 113.657C350.637 130.607 337.997 136.469 331.275 135.651C323.225 133.974 316.974 119.113 316.216 95.9687C315.877 85.9286 316.453 78.9991 318.226 70.0101C323.399 44.1437 335.66 20.4817 348.686 11.3972C351.536 9.40363 354.419 7.58145 356.133 7.77257C359.576 8.36568 362.993 13.1798 363.711 18.6892C364.163 27.1147 362.258 38.0544 361.102 42.2358L360.212 45.2541L361.622 46.2987C364.637 48.6382 372.443 50.3121 374.17 49.0204C375.271 48.2098 377.241 42.048 377.722 37.9819C379.172 25.7769 375.201 13.5785 366.46 7.64735C361.105 4.01617 353.928 2.75086 345.671 4.62906C333.407 7.64076 319.709 18.7913 309.362 34.5649C304.288 42.3149 298.528 55.37 296.027 64.9027C292.228 79.3681 294.861 102.371 301.507 115.634ZM611.044 125.483C609.795 134.017 616.632 139.895 623.67 139.948C628.017 139.984 632.439 137.8 635.084 132.653C638.442 126.007 636.284 118.649 630.01 115.255C621.578 110.744 612.395 116.375 611.044 125.483Z" fill="black"/>
<path fill-rule="evenodd" clip-rule="evenodd" d="M278.243 68.9591C279.538 73.9775 280.019 81.866 279.446 87.6027C279.11 90.71 279.034 92.8715 278.649 93.1088C274.391 94.8288 270.849 93.9655 268.052 91.8929C263.056 88.2024 260.697 79.9285 260.697 71.8588C260.697 62.7116 265.57 54.8463 268.529 54.8694C271.825 54.9056 277.393 63.6672 278.243 68.9591ZM52.4446 71.6347C53.5451 77.9448 53.1629 91.715 51.6768 99.0762C47.581 123.163 34.2656 135.816 30.0479 135.803C26.9011 135.793 23.7115 132.35 21.83 126.149C19.3092 117.845 19.2994 104.599 22.2781 88.0376C25.4216 72.3432 33.8834 52.9417 39.3466 51.9301C41.5708 51.5216 50.0095 57.6801 52.4446 71.6347ZM295.078 69.4633C292.864 77.7174 291.651 81.4673 287.453 86.1199C286.659 87.1183 284.745 89.2173 283.845 90.0641L284.316 83.3356C284.484 69.3644 280.095 57.0013 273.475 53.6238C271.129 52.4277 266.954 51.9038 263.238 53.1032C259.521 54.3026 256.437 57.6735 254.614 60.9257C249.023 71.325 251.303 89.2272 262.878 95.0035C268.78 97.857 273.877 97.2177 278.201 96.3149L277.911 97.9888C277.192 101.956 274.062 110.882 271.475 116.046C266.961 124.893 257.827 135.052 253.392 134.564C250.324 134.235 246.765 129.437 244.304 120.603C241.922 110.981 242.459 94.5586 246.354 79.2497C249.385 67.3445 253.072 56.0358 261.165 51.2151C261.873 50.7933 263.56 50.1442 264.002 49.963C264.447 49.7817 264.572 48.8987 262.394 48.9118C256.891 48.9448 244.133 54.7837 234.336 69.3018C227.249 80.2019 223.561 89.616 222.84 100.849L222.444 107.699L218.721 114.553C212.533 127.618 203.415 136.268 202.193 136.251C200.733 135.652 197.53 132.38 202.552 109.354C206.48 88.8911 207.485 81.2465 207.485 71.8258C207.439 62.5008 205.808 56.5268 202.074 52.319C198.624 48.3517 190.139 47.0238 184.584 49.5577C172.616 55.156 163.693 72.7748 161.163 79.3123C161.008 79.7209 161.163 54.7771 150.796 50.5198C131.899 42.2162 121.938 66.6229 117.611 75.9842C117.644 72.6793 118.422 54.6782 109.44 50.2826C106.757 48.9909 102.447 48.5626 99.7191 49.2776C95.4059 50.4276 89.768 55.7327 89.768 58.7444C89.0529 63.5914 95.0994 52.6089 101.469 51.917C102.81 51.772 102.8 55.8908 102.688 60.3853C102.688 64.5898 94.2097 95.155 90.6642 103.808C80.9273 125.885 71.0255 134.881 69.8426 134.729C65.648 134.195 70.5543 100.79 71.3616 96.2094C73.3279 85.0673 75.2127 73.911 77.016 62.7413C77.5432 59.5879 78.1166 55.2384 78.3077 53.0373L78.6438 49.1161H59.964L58.9095 54.4739C58.3362 57.4362 57.7134 61.163 57.519 62.7446L57.1961 65.7629C51.3374 42.5754 32.9113 45.4751 19.0127 58.1051C13.1672 63.5091 9.04835 69.8191 5.45671 78.8543C1.28843 89.4183 -0.434894 98.9806 0.0923189 108.876C0.757925 122.58 7.95768 138.489 23.9883 139.882C40.0584 139.003 46.8759 126.254 52.1942 114.323C52.405 139.583 60.0496 143.128 71.4506 137.968C81.3754 133.474 89.7284 116.524 95.0698 102.421C95.9825 100.032 96.9842 96.7927 96.8425 97.6033C94.9544 109.947 92.0482 124.27 90.7137 136.94L90.427 139.952H107.621C111.674 127.816 114.231 112.224 115.858 99.554C117.058 90.3739 118.063 87.2666 123.282 76.8442C126.973 69.483 129.79 64.7843 133.958 60.2469C136.842 57.1496 140.324 52.8923 141.867 53.4195C144.621 54.3586 145.514 74.6201 142.967 92.8616C142.249 97.8339 140.858 107.729 139.807 114.853C138.324 125.177 136.934 137.609 136.934 139.952H152.701C154.052 132.956 155.937 127.654 156.918 122.178C158.049 115.884 158.863 110.886 159.752 102.289C160.296 96.9937 160.942 94.5421 162.54 89.7478C166.58 77.6483 170.811 70.9658 174.389 65.6113C179.516 57.11 188.518 50.2101 190.911 51.0635C196.074 52.9088 192.522 71.9016 189.111 84.4954C183.075 109.307 182.577 121.209 186.268 131.681C188.64 138.538 193.589 139.952 198.911 139.952C203.857 139.952 209.544 138.33 212.658 134.31C215.294 131.444 219.746 124.893 222.049 120.494C222.764 119.107 223.664 117.311 223.805 117.311C223.947 117.311 224.333 119.825 225.146 122.119C229.249 134.149 238.004 139.962 247.368 139.952C255.158 139.942 263.383 135.899 269.61 128.142C276.408 119.68 280.431 110.118 283.305 95.6328C283.37 95.3461 283.459 94.8552 283.492 94.5257C283.954 94.2621 284.761 93.9029 285.413 93.5767C286.468 93.0495 288.814 91.1877 290.633 89.5138C291.873 88.3265 293.146 87.1728 294.449 86.054C294.435 85.8497 294.424 85.6476 294.416 85.4477C294.308 83.4737 294.264 81.4967 294.284 79.5199L294.287 78.9926C294.293 78.5784 294.304 78.1643 294.32 77.7504C294.324 77.5439 294.331 77.3396 294.34 77.1375L294.36 76.7388C294.36 76.6663 294.363 76.596 294.369 76.5279C294.404 75.7759 294.452 75.0245 294.511 74.2741L294.561 73.6876C294.605 73.235 294.647 72.8078 294.689 72.4058C294.742 71.9049 294.795 71.4579 294.847 71.0647L294.887 70.7582L294.94 70.3892C294.966 70.2047 294.989 70.0443 295.009 69.9081L295.032 69.7532L295.078 69.4633Z" fill="black"/>
</svg>
