<svg width="22" height="22" viewBox="0 0 22 22" fill="none" xmlns="http://www.w3.org/2000/svg">
<path fill-rule="evenodd" clip-rule="evenodd" d="M16.9091 3V3.88889H21V5.66667C21 8.88443 18.1883 11.6936 14.8601 11.6936C13.951 12.4915 13.0419 12.9359 12.3636 13.2222V16.3333H15.0909V18.1111H16V19H6V18.1111H6.90909V16.3333H9.63636V13.2222C8.72727 12.7778 8.0419 12.4915 7.13281 11.6936C3.83855 11.6936 1 8.86156 1 5.66667V3.88889H5.09091V3H16.9091ZM2.36364 5.22222C2.36364 7.62543 4.18182 10.1111 6.45455 10.1111C5.33884 8.77778 5.09091 7.44444 5.09091 5.22222H2.36364ZM16.9091 5.22222C16.9091 7.44444 16.6783 9.02691 15.5455 10.1111C17.8725 10.1111 19.5795 7.62543 19.4055 5.22222H16.9091Z" fill="#E4A900"/>
</svg>
