<svg width="2006" height="174" viewBox="0 0 2006 174" fill="none" xmlns="http://www.w3.org/2000/svg">
<path d="M30.6 22.4V0H54.8V22.4H30.6ZM0 134.8V115H31.8V57.8H0V38H54.6V115H84.4V134.8H0Z" fill="black"/>
<path d="M118.922 134.8V38H141.322V51.4C148.122 41.2 159.522 36 171.522 36C192.122 36 205.322 48.6 205.322 70.8V134.8H182.322V75.4C182.322 63.6 176.322 56 163.122 56C151.122 56 141.922 64.2 141.922 76.8V134.8H118.922Z" fill="black"/>
<path d="M328.444 134.8H303.244C274.044 134.8 262.444 124.6 262.444 96V58.2H233.644V38H262.444V11.8H285.644V38H325.644V58.2H285.644V94.6C285.644 108.2 290.044 114.8 303.844 114.8H328.444V134.8Z" fill="black"/>
<path d="M357.766 134.8V115H386.366V57.8H357.766V38H407.166V54.8C413.566 42.6 425.366 38 438.166 38H452.766V59H435.966C417.366 59 409.166 65.2 409.166 79.8V115H446.766V134.8H357.766Z" fill="black"/>
<path d="M521.888 136.8C492.088 136.8 472.688 118.8 472.688 86.4C472.688 54.2 492.088 36 521.888 36C551.688 36 571.088 54.2 571.088 86.4C571.088 118.8 551.688 136.8 521.888 136.8ZM521.888 117.4C538.088 117.4 548.088 106.4 548.088 86.4C548.088 66.6 538.088 55.4 521.888 55.4C505.688 55.4 495.688 66.6 495.688 86.4C495.688 106.4 505.688 117.4 521.888 117.4Z" fill="black"/>
<path d="M627.609 134.8L589.609 38H613.809L642.209 114L670.409 38H694.009L655.809 134.8H627.609Z" fill="black"/>
<path d="M808.531 92H736.531C737.731 109.4 747.331 118.8 762.531 118.8C775.531 118.8 782.931 111.8 785.931 103.6L806.331 107.6C801.731 124.2 786.931 136.8 762.531 136.8C734.131 136.8 714.531 119.2 714.531 86.4C714.531 53.6 735.131 36 763.531 36C791.131 36 808.931 53.6 808.931 83C808.931 86.8 808.931 90.2 808.531 92ZM763.531 54C749.131 54 739.331 62 736.931 76.6H787.731C786.931 63.8 778.131 54 763.531 54Z" fill="black"/>
<path d="M837.453 134.8V115H866.053V57.8H837.453V38H886.853V54.8C893.253 42.6 905.053 38 917.853 38H932.453V59H915.653C897.053 59 888.853 65.2 888.853 79.8V115H926.453V134.8H837.453Z" fill="black"/>
<path d="M1047.97 134.8H1022.78C993.575 134.8 981.975 124.6 981.975 96V58.2H953.175V38H981.975V11.8H1005.17V38H1045.18V58.2H1005.17V94.6C1005.17 108.2 1009.58 114.8 1023.38 114.8H1047.97V134.8Z" fill="black"/>
<path d="M1195.02 109L1216.02 104.6C1219.22 114.4 1227.02 119.6 1242.62 119.6C1258.02 119.6 1264.82 115.4 1264.82 108.2C1264.82 101.6 1260.22 98.8 1248.02 96.8L1229.82 93.8C1208.82 90.4 1199.22 82.8 1199.22 66C1199.22 48.6 1214.62 36 1241.62 36C1266.42 36 1281.82 47.2 1285.62 63.4L1265.22 67.6C1262.22 59.2 1255.02 53.2 1241.22 53.2C1227.42 53.2 1220.62 57.8 1220.62 64.8C1220.62 71.4 1225.62 73.4 1236.82 75.2L1255.02 78.4C1276.02 81.8 1286.42 90 1286.42 107C1286.42 125 1270.82 136.8 1242.22 136.8C1216.02 136.8 1199.42 127.8 1195.02 109Z" fill="black"/>
<path d="M1373.34 143.4C1364.74 164.8 1357.74 173.6 1335.74 173.6H1319.94V153.4H1333.54C1341.94 153.4 1347.14 151.2 1350.74 141.6L1353.34 135.2L1307.14 38H1332.14L1364.94 110.8L1392.34 38H1415.54L1373.34 143.4Z" fill="black"/>
<path d="M1434.86 109L1455.86 104.6C1459.06 114.4 1466.86 119.6 1482.46 119.6C1497.86 119.6 1504.66 115.4 1504.66 108.2C1504.66 101.6 1500.06 98.8 1487.86 96.8L1469.66 93.8C1448.66 90.4 1439.06 82.8 1439.06 66C1439.06 48.6 1454.46 36 1481.46 36C1506.26 36 1521.66 47.2 1525.46 63.4L1505.06 67.6C1502.06 59.2 1494.86 53.2 1481.06 53.2C1467.26 53.2 1460.46 57.8 1460.46 64.8C1460.46 71.4 1465.46 73.4 1476.66 75.2L1494.86 78.4C1515.86 81.8 1526.26 90 1526.26 107C1526.26 125 1510.66 136.8 1482.06 136.8C1455.86 136.8 1439.26 127.8 1434.86 109Z" fill="black"/>
<path d="M1647.58 134.8H1622.38C1593.18 134.8 1581.58 124.6 1581.58 96V58.2H1552.78V38H1581.58V11.8H1604.78V38H1644.78V58.2H1604.78V94.6C1604.78 108.2 1609.18 114.8 1622.98 114.8H1647.58V134.8Z" fill="black"/>
<path d="M1767.91 92H1695.91C1697.11 109.4 1706.71 118.8 1721.91 118.8C1734.91 118.8 1742.31 111.8 1745.31 103.6L1765.71 107.6C1761.11 124.2 1746.31 136.8 1721.91 136.8C1693.51 136.8 1673.91 119.2 1673.91 86.4C1673.91 53.6 1694.51 36 1722.91 36C1750.51 36 1768.31 53.6 1768.31 83C1768.31 86.8 1768.31 90.2 1767.91 92ZM1722.91 54C1708.51 54 1698.71 62 1696.31 76.6H1747.11C1746.31 63.8 1737.51 54 1722.91 54Z" fill="black"/>
<path d="M1790.63 134.8V38H1809.03V47.8C1813.43 40 1820.63 36 1828.83 36C1838.03 36 1844.43 41.2 1847.43 49C1852.03 41 1859.23 36 1868.63 36C1882.83 36 1891.43 45.4 1891.43 64.6V134.8H1871.83V69.6C1871.83 59.4 1869.43 54.2 1862.23 54.2C1855.23 54.2 1850.83 59.2 1850.83 70.2V134.8H1831.23V69.6C1831.23 59.4 1828.83 54.2 1821.63 54.2C1814.63 54.2 1810.23 59.2 1810.23 70.2V134.8H1790.63Z" fill="black"/>
<path d="M1914.55 109L1935.55 104.6C1938.75 114.4 1946.55 119.6 1962.15 119.6C1977.55 119.6 1984.35 115.4 1984.35 108.2C1984.35 101.6 1979.75 98.8 1967.55 96.8L1949.35 93.8C1928.35 90.4 1918.75 82.8 1918.75 66C1918.75 48.6 1934.15 36 1961.15 36C1985.95 36 2001.35 47.2 2005.15 63.4L1984.75 67.6C1981.75 59.2 1974.55 53.2 1960.75 53.2C1946.95 53.2 1940.15 57.8 1940.15 64.8C1940.15 71.4 1945.15 73.4 1956.35 75.2L1974.55 78.4C1995.55 81.8 2005.95 90 2005.95 107C2005.95 125 1990.35 136.8 1961.75 136.8C1935.55 136.8 1918.95 127.8 1914.55 109Z" fill="black"/>
</svg>
