<svg width="16" height="16" viewBox="0 0 16 16" fill="none" xmlns="http://www.w3.org/2000/svg">
<rect width="16" height="16" rx="8" fill="black"/>
<path fill-rule="evenodd" clip-rule="evenodd" d="M8.10744 12.9715C7.12606 12.9715 6.67 12.8276 5.87726 12.252C5.37583 12.8995 3.78796 13.4055 3.71872 12.5398C3.71872 11.8899 3.57545 11.3407 3.41308 10.7412C3.21967 10.0026 3 9.18 3 7.98813C3 5.14154 5.32569 3 8.08117 3C10.839 3 13 5.24706 13 8.01451C13.0044 9.32307 12.4918 10.5799 11.5745 11.5093C10.6572 12.4386 9.41033 12.9645 8.10744 12.9715ZM8.14803 5.46049C6.8061 5.39094 5.76026 6.32382 5.52865 7.78669C5.33762 8.99775 5.67669 10.4726 5.96561 10.5493C6.1041 10.5829 6.45271 10.2999 6.67 10.0817C7.02929 10.331 7.44769 10.4807 7.88299 10.5158C8.55139 10.5481 9.20572 10.3157 9.70535 9.8686C10.205 9.42151 10.51 8.79539 10.5549 8.12482C10.581 7.45287 10.3435 6.79747 9.89334 6.29964C9.44321 5.80181 8.81649 5.50134 8.14803 5.46289V5.46049Z" fill="white"/>
</svg>
