<svg width="16" height="16" viewBox="0 0 16 16" fill="none" xmlns="http://www.w3.org/2000/svg">
<rect width="16" height="16" rx="8" fill="black"/>
<path d="M4.42009 9.18785C4.42009 8.99448 4.36328 8.83794 4.24966 8.71823C4.13604 8.59392 3.99288 8.48573 3.82018 8.39365C3.65202 8.29696 3.46796 8.20718 3.26799 8.12431C3.06802 8.04144 2.88169 7.94245 2.70898 7.82735C2.54083 7.70764 2.39994 7.56262 2.28632 7.39227C2.1727 7.21731 2.11589 6.99632 2.11589 6.72928C2.11589 6.35175 2.24542 6.05249 2.50447 5.83149C2.76352 5.6105 3.13165 5.5 3.60885 5.5C3.88608 5.5 4.13831 5.52072 4.36555 5.56215C4.59279 5.60359 4.77004 5.65654 4.89729 5.72099L4.72686 6.22514C4.62233 6.17449 4.46781 6.12615 4.26329 6.08011C4.06332 6.03407 3.83609 6.01105 3.58158 6.01105C3.28162 6.01105 3.05666 6.08011 2.90668 6.21823C2.7567 6.35175 2.68172 6.51059 2.68172 6.69475C2.68172 6.87431 2.73852 7.02394 2.85214 7.14365C2.96576 7.26335 3.10665 7.37155 3.27481 7.46823C3.44751 7.56031 3.63384 7.65239 3.83381 7.74448C4.03378 7.83656 4.21785 7.94475 4.386 8.06906C4.5587 8.18877 4.70186 8.33379 4.81548 8.50414C4.9291 8.67449 4.98591 8.88628 4.98591 9.1395C4.98591 9.34669 4.94956 9.53315 4.87684 9.69889C4.80412 9.86464 4.69732 10.0074 4.55643 10.1271C4.41554 10.2468 4.24512 10.3389 4.04515 10.4033C3.84518 10.4678 3.61794 10.5 3.36343 10.5C3.02257 10.5 2.7408 10.4724 2.5181 10.4171C2.29541 10.3665 2.12271 10.3089 2 10.2445L2.19088 9.72652C2.29541 9.78637 2.44993 9.84622 2.65445 9.90608C2.85896 9.96133 3.08847 9.98895 3.34298 9.98895C3.49296 9.98895 3.63384 9.97514 3.76564 9.94751C3.89744 9.91529 4.01106 9.86694 4.1065 9.80249C4.20194 9.73343 4.27693 9.64825 4.33147 9.54696C4.39055 9.44567 4.42009 9.32597 4.42009 9.18785Z" fill="white"/>
<path d="M9.55511 7.17127L9.62328 6.44613H9.5892L9.33014 7.10912L8.08942 9.29144H7.91899L6.60328 7.10221L6.35787 6.44613H6.32378L6.41922 7.16436V10.4171H5.88748V5.58287H6.31014L7.8031 8.05525L8.02807 8.59392H8.0417L8.25303 8.04144L9.67782 5.58287H10.1209V10.4171H9.55511V7.17127Z" fill="white"/>
<path d="M13.4342 9.18785C13.4342 8.99448 13.3774 8.83794 13.2637 8.71823C13.1501 8.59392 13.007 8.48573 12.8343 8.39365C12.6661 8.29696 12.482 8.20718 12.2821 8.12431C12.0821 8.04144 11.8958 7.94245 11.7231 7.82735C11.5549 7.70764 11.414 7.56262 11.3004 7.39227C11.1868 7.21731 11.13 6.99632 11.13 6.72928C11.13 6.35175 11.2595 6.05249 11.5186 5.83149C11.7776 5.6105 12.1457 5.5 12.6229 5.5C12.9002 5.5 13.1524 5.52072 13.3796 5.56215C13.6069 5.60359 13.7841 5.65654 13.9114 5.72099L13.7409 6.22514C13.6364 6.17449 13.4819 6.12615 13.2774 6.08011C13.0774 6.03407 12.8502 6.01105 12.5957 6.01105C12.2957 6.01105 12.0707 6.08011 11.9208 6.21823C11.7708 6.35175 11.6958 6.51059 11.6958 6.69475C11.6958 6.87431 11.7526 7.02394 11.8662 7.14365C11.9799 7.26335 12.1207 7.37155 12.2889 7.46823C12.4616 7.56031 12.6479 7.65239 12.8479 7.74448C13.0479 7.83656 13.2319 7.94475 13.4001 8.06906C13.5728 8.18877 13.716 8.33379 13.8296 8.50414C13.9432 8.67449 14 8.88628 14 9.1395C14 9.34669 13.9636 9.53315 13.8909 9.69889C13.8182 9.86464 13.7114 10.0074 13.5705 10.1271C13.4296 10.2468 13.2592 10.3389 13.0592 10.4033C12.8593 10.4678 12.632 10.5 12.3775 10.5C12.0367 10.5 11.7549 10.4724 11.5322 10.4171C11.3095 10.3665 11.1368 10.3089 11.0141 10.2445L11.205 9.72652C11.3095 9.78637 11.464 9.84622 11.6685 9.90608C11.873 9.96133 12.1026 9.98895 12.3571 9.98895C12.507 9.98895 12.6479 9.97514 12.7797 9.94751C12.9115 9.91529 13.0251 9.86694 13.1206 9.80249C13.216 9.73343 13.291 9.64825 13.3456 9.54696C13.4046 9.44567 13.4342 9.32597 13.4342 9.18785Z" fill="white"/>
<path d="M4.42009 9.18785C4.42009 8.99448 4.36328 8.83794 4.24966 8.71823C4.13604 8.59392 3.99288 8.48573 3.82018 8.39365C3.65202 8.29696 3.46796 8.20718 3.26799 8.12431C3.06802 8.04144 2.88169 7.94245 2.70898 7.82735C2.54083 7.70764 2.39994 7.56262 2.28632 7.39227C2.1727 7.21731 2.11589 6.99632 2.11589 6.72928C2.11589 6.35175 2.24542 6.05249 2.50447 5.83149C2.76352 5.6105 3.13165 5.5 3.60885 5.5C3.88608 5.5 4.13831 5.52072 4.36555 5.56215C4.59279 5.60359 4.77004 5.65654 4.89729 5.72099L4.72686 6.22514C4.62233 6.17449 4.46781 6.12615 4.26329 6.08011C4.06332 6.03407 3.83609 6.01105 3.58158 6.01105C3.28162 6.01105 3.05666 6.08011 2.90668 6.21823C2.7567 6.35175 2.68172 6.51059 2.68172 6.69475C2.68172 6.87431 2.73852 7.02394 2.85214 7.14365C2.96576 7.26335 3.10665 7.37155 3.27481 7.46823C3.44751 7.56031 3.63384 7.65239 3.83381 7.74448C4.03378 7.83656 4.21785 7.94475 4.386 8.06906C4.5587 8.18877 4.70186 8.33379 4.81548 8.50414C4.9291 8.67449 4.98591 8.88628 4.98591 9.1395C4.98591 9.34669 4.94956 9.53315 4.87684 9.69889C4.80412 9.86464 4.69732 10.0074 4.55643 10.1271C4.41554 10.2468 4.24512 10.3389 4.04515 10.4033C3.84518 10.4678 3.61794 10.5 3.36343 10.5C3.02257 10.5 2.7408 10.4724 2.5181 10.4171C2.29541 10.3665 2.12271 10.3089 2 10.2445L2.19088 9.72652C2.29541 9.78637 2.44993 9.84622 2.65445 9.90608C2.85896 9.96133 3.08847 9.98895 3.34298 9.98895C3.49296 9.98895 3.63384 9.97514 3.76564 9.94751C3.89744 9.91529 4.01106 9.86694 4.1065 9.80249C4.20194 9.73343 4.27693 9.64825 4.33147 9.54696C4.39055 9.44567 4.42009 9.32597 4.42009 9.18785Z" stroke="white" stroke-width="0.4"/>
<path d="M9.55511 7.17127L9.62328 6.44613H9.5892L9.33014 7.10912L8.08942 9.29144H7.91899L6.60328 7.10221L6.35787 6.44613H6.32378L6.41922 7.16436V10.4171H5.88748V5.58287H6.31014L7.8031 8.05525L8.02807 8.59392H8.0417L8.25303 8.04144L9.67782 5.58287H10.1209V10.4171H9.55511V7.17127Z" stroke="white" stroke-width="0.4"/>
<path d="M13.4342 9.18785C13.4342 8.99448 13.3774 8.83794 13.2637 8.71823C13.1501 8.59392 13.007 8.48573 12.8343 8.39365C12.6661 8.29696 12.482 8.20718 12.2821 8.12431C12.0821 8.04144 11.8958 7.94245 11.7231 7.82735C11.5549 7.70764 11.414 7.56262 11.3004 7.39227C11.1868 7.21731 11.13 6.99632 11.13 6.72928C11.13 6.35175 11.2595 6.05249 11.5186 5.83149C11.7776 5.6105 12.1457 5.5 12.6229 5.5C12.9002 5.5 13.1524 5.52072 13.3796 5.56215C13.6069 5.60359 13.7841 5.65654 13.9114 5.72099L13.7409 6.22514C13.6364 6.17449 13.4819 6.12615 13.2774 6.08011C13.0774 6.03407 12.8502 6.01105 12.5957 6.01105C12.2957 6.01105 12.0707 6.08011 11.9208 6.21823C11.7708 6.35175 11.6958 6.51059 11.6958 6.69475C11.6958 6.87431 11.7526 7.02394 11.8662 7.14365C11.9799 7.26335 12.1207 7.37155 12.2889 7.46823C12.4616 7.56031 12.6479 7.65239 12.8479 7.74448C13.0479 7.83656 13.2319 7.94475 13.4001 8.06906C13.5728 8.18877 13.716 8.33379 13.8296 8.50414C13.9432 8.67449 14 8.88628 14 9.1395C14 9.34669 13.9636 9.53315 13.8909 9.69889C13.8182 9.86464 13.7114 10.0074 13.5705 10.1271C13.4296 10.2468 13.2592 10.3389 13.0592 10.4033C12.8593 10.4678 12.632 10.5 12.3775 10.5C12.0367 10.5 11.7549 10.4724 11.5322 10.4171C11.3095 10.3665 11.1368 10.3089 11.0141 10.2445L11.205 9.72652C11.3095 9.78637 11.464 9.84622 11.6685 9.90608C11.873 9.96133 12.1026 9.98895 12.3571 9.98895C12.507 9.98895 12.6479 9.97514 12.7797 9.94751C12.9115 9.91529 13.0251 9.86694 13.1206 9.80249C13.216 9.73343 13.291 9.64825 13.3456 9.54696C13.4046 9.44567 13.4342 9.32597 13.4342 9.18785Z" stroke="white" stroke-width="0.4"/>
</svg>
