<svg width="16" height="16" viewBox="0 0 16 16" fill="none" xmlns="http://www.w3.org/2000/svg">
<rect width="16" height="16" rx="8" fill="black"/>
<path fill-rule="evenodd" clip-rule="evenodd" d="M11.0678 4.55473C11.1784 4.50627 11.2995 4.48956 11.4185 4.50633C11.5375 4.5231 11.6499 4.57275 11.7442 4.6501C11.8385 4.72745 11.9111 4.82968 11.9545 4.94615C11.998 5.06262 12.0106 5.18907 11.9911 5.31233L10.9755 11.7221C10.877 12.3404 10.225 12.695 9.68006 12.387C9.22421 12.1293 8.54715 11.7324 7.93816 11.3182C7.63366 11.1108 6.70092 10.4469 6.81555 9.97442C6.91407 9.57046 8.48133 8.05246 9.3769 7.14996C9.72842 6.79539 9.56811 6.59084 9.15301 6.91699C8.1222 7.72678 6.46718 8.95823 5.91998 9.30488C5.43726 9.61053 5.1856 9.66272 4.88469 9.61053C4.3357 9.51548 3.82657 9.36825 3.41102 9.18887C2.84949 8.94658 2.87681 8.14332 3.41057 7.90942L11.0678 4.55473Z" fill="white"/>
</svg>
