<svg width="16" height="16" viewBox="0 0 16 16" fill="none" xmlns="http://www.w3.org/2000/svg">
<rect width="16" height="16" rx="8" fill="black"/>
<path d="M8.01855 3.5C9.2171 3.50055 10.3424 3.96485 11.1885 4.80762C12.0344 5.65053 12.5004 6.77124 12.5 7.96289C12.499 10.4217 10.4882 12.4229 8.01855 12.4229H8.0166C7.26688 12.4225 6.53031 12.2351 5.87598 11.8799L3.5 12.5L4.13574 10.1895C3.74371 9.51326 3.53788 8.74581 3.53809 7.95996C3.53908 5.50114 5.5486 3.50016 8.01855 3.5ZM6.43164 5.90039C6.357 5.9004 6.23537 5.92757 6.13281 6.03906C6.03018 6.15059 5.74131 6.42051 5.74121 6.96875C5.74121 7.51724 6.14231 8.04763 6.19824 8.12207C6.25447 8.19682 6.97349 9.35796 8.11133 9.80469C9.05691 10.1759 9.2498 10.1016 9.45508 10.083C9.66054 10.0641 10.1176 9.81379 10.2109 9.55371C10.3043 9.29345 10.3034 9.07007 10.2754 9.02344C10.2473 8.97714 10.1732 8.94911 10.0615 8.89355C9.94954 8.83781 9.3986 8.56843 9.2959 8.53125C9.19325 8.4941 9.11859 8.47532 9.04395 8.58691C8.96912 8.69855 8.75476 8.94916 8.68945 9.02344C8.62422 9.09778 8.55904 9.10732 8.44727 9.05176C8.33529 8.99585 7.97467 8.87775 7.54688 8.49805C7.21421 8.20278 6.98934 7.83838 6.92383 7.72656C6.85858 7.61518 6.91655 7.55455 6.97266 7.49902C7.0229 7.44911 7.08467 7.36879 7.14062 7.30371C7.19645 7.23868 7.21567 7.19238 7.25293 7.11816C7.29022 7.04378 7.27112 6.97856 7.24316 6.92285C7.21517 6.8671 6.99801 6.31512 6.89844 6.09473C6.81467 5.90956 6.72619 5.9056 6.64648 5.90234C6.58122 5.89957 6.50623 5.90039 6.43164 5.90039Z" fill="white"/>
</svg>
