<svg xmlns="http://www.w3.org/2000/svg" fill="none" viewBox="0 0 397 61"><g fill-rule="evenodd" clip-path="url(#enterprise-logo_svg__a)" clip-rule="evenodd"><path fill="#252E31" d="M280.284.197c-1.614 2.692-4.188 4.455-7.001 5.657-3.422 1.463-7.404 1.277-10.907 1.508h-2.53l.102-.551c.102-.58.814-5.543.814-5.731 0-.058-1.395-.087-3.082-.073l-3.096.044-.319 1.233c-.189.682-.51 2.017-.712 2.989l-.393 1.74-5.248-.057c-12.151-.145-16.992.812-20.335 4.033-1.279 1.248-1.323 1.436-.32 1.828.726.276.988.189.857-.305-.203-.783.844-1.828 2.777-2.785 3.213-1.596 6.57-2.176 13.591-2.322 5.102-.101 8.635.03 8.518.334-.131.334-1.221 5.571-1.671 8.038a144 144 0 0 0-1.455 9.72c-.261 2.278-.363 2.743-.93 4.28-.799 2.162-1.521 3.502-2.583 5.402-2.291 4.117-4.102 5.804-4.765 6.16-1.081-.417-.88-3.062.052-7.818 1.191-6.036 1.57-8.865 1.57-11.723-.016-2.83-.51-4.643-1.643-5.92-1.047-1.204-3.445-1.566-5.132-.798-2.282 1.06-4.622 3.628-6.308 6.921l-.625 1.233v-1.088c-.015-3.366-1.018-6.065-2.53-6.804-.813-.392-2.121-.523-2.95-.305-1.294.348-2.951 1.958-2.951 2.873 0 .333.073.29.945-.508 1.426-1.304 2.675-2.611 2.907-.29.16 1.61-.131 3.99-1.162 9.329-1.237 6.441-2.152 12.042-2.472 15.118l-.087.914h5.219c2.835-8.503 1.019-13.949 6.744-22.561 2.04-3.07 4.048-4.552 4.945-4.411 1.795.282.082 8.695-.518 10.142-1.482 6.122-1.781 9.633-1.345 12.158.552 3.177 1.409 4.352 3.372 4.672 1.09.174 2.675-.044 3.648-.523 1.41-.682 3.067-2.872 5.16-6.848.524-.972.989-1.726 1.033-1.668.057.043.101.333.101.624 0 .304.103 1.117.218 1.828.635 3.67 1.972 6.587 4.883 6.587.812 0 2.031-.352 3.332-1.012.945-.48 2.731-2.122 3.894-3.675.523-.696.989-1.262 1.032-1.262.058 0 .203.305.334.682.392 1.074 1.28 2.466 2.122 3.322 1.033 1.064 2.916 1.982 4.435 1.945 2.183-.053 4.384-1.07 5.93-2.597 2.688-2.7 5.348-7.646 7.762-14.451 1.031-2.902 1.846-6.34 2.486-10.504l.087-.653.785.87c.436.465.959 1.205 1.177 1.64.377.754.377.798.203 1.886-.262 1.552-.625 2.64-1.773 5.397-1.526 3.7-1.991 5.6-2.239 9.286-.159 2.321.321 5.31 1.09 6.804.379.726 1.265 1.523 2.109 1.915.581.25 1.454.41 2.331.407.91-.004 1.823-.184 2.422-.465 2.034-.943 3.866-2.582 5.509-4.904.509-.725.945-1.547.973-1.474.03.072-.087 1.605-.246 3.027-.364 3.206-.553 5.803-.742 10.2-.087 1.87-.247 3.99-.364 4.715-.654 4.004-1.816 5.948-4.055 6.731-1.729.61-1.308.944.596.48 3.576-.886 5.786-2.8 7.733-6.675.771-1.523 1.308-3.148 2.035-6.064.93-3.729 1.003-4.193 2.631-16.67.262-2.017.523-6.353.858-10.445.363-.755 2.511-3.892 4.725-4.639 2.888-.012 2.584 8.487 2.651 10.05l-1.721 1.885c-2.137 2.176-3.155 3.627-3.911 5.6-.93 2.423-1.265 5.267-.785 6.848.351 1.18 1.237 1.8 2.528 1.8a5.4 5.4 0 0 0 1.397-.204c2.137-.565 3.851-2.277 5.437-5.455 1.788-3.569 2.979-9.14 2.732-12.767l-.088-1.233 1.047-1.161c2.777-3.09 4.913-5.978 5.625-7.646.204-.464.393-.842.436-.842.044 0 .19.174.321.392.131.232.682.929 1.221 1.567.537.638 1.104 1.45 1.265 1.813.275.595.275.74.101 1.742-.247 1.537-.61 2.626-1.758 5.382-1.527 3.7-1.992 5.6-2.24 9.286-.159 2.321.321 5.31 1.09 6.804.379.726 1.265 1.523 2.109 1.915.61.261 1.081.33 2.325.407 1.605-.11 2.399-.276 4.143-1.451 2.195-1.48 4.68-4.73 7.035-9.17l.771-1.436.087 2.075c.218 5.15 1.57 8.777 3.59 9.662a3.7 3.7 0 0 0 1.578.32c2.147 0 5.776-1.378 8.01-6.79 3.038-5.949 5.864-14.407 7.157-22.068l.19-1.074 1.424 2.873c1.759 3.54 2.049 4.41 2.34 6.92.349 3.018.363 2.931-.45 3.236-.959.348-2.486 1.248-3.518 2.09-3.183 2.553-5.334 7.283-4.826 10.605.727 4.633 5.719 5.2 9.173 3.22 3.654-2.188 5.778-6.885 5.625-11.055-.044-1.552-.117-2.002-.523-3.191-.262-.755-.495-1.451-.539-1.538-.043-.102.451-.29 1.352-.494a26 26 0 0 0 2.704-.797c.697-.262 1.264-.436 1.264-.407 0 .044-.188.624-.436 1.291-1.924 5.46-1.896 15.806 5.336 17.062.346.059.694.116 1.042.117 2.172.004 4.253-1.13 5.759-2.686 1.511-1.523 3.134-3.999 4.514-6.755 1.134-2.278 2.069-4.6 2.069-4.99 0-.335-.669-.625-1.003-.45-.146.086-.378.464-.523.84-.56 1.492-2.157 5.023-4.165 7.916-1.886 2.716-4.22 4.834-5.602 4.903-.756-.301-1.574-1.082-1.987-2.31-.763-2.261-.703-5.614-.573-7.039l.064-2.165c3.191-.98 6.91-3.594 9.122-8.65.923-2.81 1.009-4.721-.148-5.732-1.273-1.113-3.773-.835-6.117.021-2.449.895-4.443 3.058-5.542 4.862-.305.479-.676 1.212-.981 1.516-.668.668-3.299 1.973-5.043 2.51-.684.218-1.324.407-1.411.436-.101.043-.189.014-.189-.058 0-.145-1.482-2.612-2.515-4.179-1.526-2.336-2.427-4.672-2.427-6.326 0-.667.349-1.77 1.178-3.743 1.395-3.308 1.424-4.178.159-4.788-.494-.232-1.031-.348-1.962-.391-1.192-.058-1.309-.044-1.657.275-.96.885-1.352 1.959-1.802 4.846-.756 4.918-1.938 8.937-3.841 14.538-2.392 7.134-6.446 15.511-8.713 15.805-.559-.104-.844-.878-1.11-3.11-.247-2.133.175-6.573 1.25-13.203.451-2.786 1.512-8.807 1.701-9.46h-7.024l-.186 1.263c-.494 2.698-.945 5.73-1.251 8.284-.29 2.365-.363 2.684-.973 4.091-1.107 2.615-3.259 6.314-5.57 9.085-2.284 2.738-4.837 4.376-5.785 4.241-1.672-1.191-.862-2.476 1.121-8.103 1.178-3.395 1.614-5.266 1.716-7.588.175-3.772-.495-6.166-2.573-9.241-1.003-1.466-1.308-2.307-1.308-3.54 0-1.147.334-2.22 1.439-4.76.974-2.205 1.352-3.35 1.221-3.684-.204-.537-2.777-1.364-4.259-1.364-1.017 0-1.425.275-1.889 1.262-.655 1.378-.888 2.307-1.003 3.96-.204 2.786-1.439 5.993-3.17 8.3-.152.2-3.201 4.564-3.532 3.67-.132-2.503-2.988-5.725-5.96-5.725-2.121 0-3.745.653-5.561 2.292l-.771.778.073-.638c.044-.334.161-1.828.292-3.308.135-1.637.17-3.924.733-6.072.606-2.313 1.889-4.488 3.523-6.146.299-.305.668-.458 1.01-.596s-.563-.268-.984-.188c-1.695.321-3.643 2.03-4.628 3.188-4.078 4.069-4.85 10.25-6.042 15.762-.581 2.714-1.905 10.301-2.107 12.115-.117.972-.611 1.93-2.036 3.917-2.328 3.241-5.687 5.659-7.062 5.712-.655-.436-.879-.835-.907-1.493-.045-1.076.369-2.988 1.861-6.674 1.177-3.395 1.675-5.205 1.777-7.527.174-3.772-.495-6.166-2.573-9.241-1.003-1.466-1.308-2.307-1.308-3.54 0-1.147.333-2.22 1.439-4.76.973-2.205 1.352-3.35 1.221-3.684-.204-.552-2.777-1.364-4.303-1.364-.799 0-.902.043-1.322.479-.495.536-1.178 2.161-1.396 3.322-.291 1.509-.146 3.134.45 5.223.175.638.145.87-.291 3.12-1.627 8.226-5.145 16.945-8.721 21.646-1.865 2.434-4.187 3.91-4.991 3.855-3.15-1.23-2.728-7.982-2.494-10.543l.101-.958 1.032-.377c3.198-1.175 6.832-4.89 8.053-8.27 1.105-3.047.945-5.208-.465-5.92-.814-.42-2.82-.507-4.303-.203-3.227.668-6.41 3.54-8.285 7.443-1.265 2.64-2.079 5.63-2.268 8.357l-.101 1.436-1.367 2.264c-.742 1.248-1.715 2.727-2.137 3.293-1.014 1.34-2.127 2.51-2.568 2.64-.277-.13-.371-.82-.586-1.77-.581-2.64.262-10.416 2.194-20.311.553-2.786 1.891-10.185 1.891-10.432 0-.029 1.875-.087 4.186-.13 3.907-.079 7.101-.318 9.442-1.142 5.009-1.763 7.023-4.861 7.366-6.069.161-.565-.245-.704-.455-.346m-4.114 19.526c-1.047 3.134-2.994 5.542-6.018 7.472-.639.406-1.192.74-1.206.726-.102-.116.663-3.845 1.187-5.412.405-1.226 2.038-7.248 5.543-6.958 1.141.311.841 3.142.494 4.172m113.677-4.195c.749.511 1.141 2.42.161 4.793-2.025 4.008-3.258 5.111-6.953 7.64-.055-1.902 2.396-12.748 6.792-12.433m-21.331 13.756c.145 2.786 0 4.179-.624 6.442-.815 2.88-3.118 5.869-4.475 5.64-1.205-.367-1.77-1.247-2.15-3.42-.421-2.54 1.231-6.18 3.891-8.778 1.12-1.088 2.849-2.38 3.097-2.307.087.015.203 1.06.261 2.423m-54.117 1.088c-.378 4.919-1.468 8.807-2.951 10.563-.436.507-.508.55-.813.391-.19-.101-.509-.55-.713-1-.538-1.132-.552-3.062-.058-4.672.422-1.32 1.41-3.395 2.166-4.527.669-1.016 2.383-3.061 2.471-2.96.043.03 0 1.03-.102 2.205M215.517 1.123c-1.643.276-4.055 1.115-5.378 2.087-1.221.9-2.653 2.371-3.336 3.735-1.032 2.06-1.288 4.32-.605 6.307.159.45.399.788.369.803-.011.023-6.742 1.735-8.435 3.596-2.054 1.866-2.322 4.002-1.218 6.048.209.397.354.63.533.718.064.031.608.045.871.021.13-.012.176-.15.061-.211-.271-.144-.578-.454-.724-.683-1.183-1.857-.109-4.675 2.314-6.245 2.288-1.482 5.519-2.234 6.928-2.697.67 1.198 1.755 2.16 2.907 2.887l-1.421.505c-2.428 1.118-4.68 2.908-6.497 5.33-2.413 3.178-3.923 7.223-3.733 10.298.159 2.67.944 4.498 2.644 6.181 2.086 2.08 4.175 2.634 6.6 2.67.813.012 1.664-.139 2.565-.17.231.614.817 2.185 1.153 2.834.885 1.712 2.203 2.516 2.291 2.122.028-.123-.177-.486-.501-1.003-.799-1.291-1.866-3.879-1.776-4.212.006-.014 4.887-1.501 7.021-5.665 1.352-2.278 1.976-4.469 1.992-6.964.028-2.568-.597-3.96-2.109-4.73-2.019-1.03-4.318.029-5.77 1.509-1.628 1.64-2.69 3.86-3.285 6.834-.32 1.552-.233 5.049.145 6.732.145.609.218 1.16.175 1.204-.044.058-.466-.058-.93-.247-1.221-.493-2.633-2.162-3.346-3.613-1.642-3.38-1.777-7.921-.091-11.97 1.282-3.076 3.212-5.535 6.161-6.97l1.125.399c1.396.42 3.31.464 3.906.072.262-.16.393-.377.393-.624 0-.855-2.039-1.148-2.656-1.148l-1.177.075c-.983-.692-1.763-2.816-1.866-3.545.153-.179.654-.231 1.749-.648 1.457-.57 5.633-2.225 8.311-4.588 1.655-1.46 3.074-3.4 2.035-5.143-1.375-2.31-4.807-2.315-7.395-1.89Zm4.361.58c2.079.392 2.888 2.191 2.03 4.034-.422.9-1.858 2.305-3.312 3.277-1.134.74-4.361 2.422-5.509 2.842-.321.117-.931.349-1.367.508s-1.027.431-1.085.388c-.268-2.189-.009-4.056.232-4.802.858-2.699 2.72-4.912 5.105-5.811 1.409-.537 2.728-.667 3.906-.435Zm-4.943 15.875c.29.116.274.441-.003.543-.591.175-1.622-.497-1.622-.642 0-.116 1.333-.017 1.625.1Zm1.964 7.659c1.062.725 1.614 2.684 1.324 4.686-.495 3.25-2.297 6.645-4.739 8.879-1.09 1.016-2.631 2.046-2.791 1.886-.218-.232-.466-2.365-.466-4.091-.014-3.28.626-5.818 2.109-8.357.712-1.225 2.893-4.115 4.563-3.003M348.471 5.823c-2.47 1.146-3.023 4.686-1.003 6.456.771.668 1.439.929 2.471.943 1.527.015 2.821-.841 3.503-2.307.684-1.436.335-3.424-.755-4.454-1.09-1.015-2.849-1.276-4.216-.638"></path><path fill="#339DC8" d="M125.139.433c-4.461 1.089-9.294 7.088-9.478 11.691-.044.857.032.896.294.896.312-.05.225-.389.324-.997.842-5.187 5.246-10.05 9.306-11.043 4.415-.885 7.733 1.707 6.124 10.532-.785 4.338-2.103 7.157-4.371 9.232-1.583 1.419-2.326 1.957-4.118 1.847-1.232-.076-1.374-.894-2.018-.908-.228-.006-.401.228-.347.463 0 .421.724.82 2.09 1.21.602.143.913.195 1.128.276 1.053.763.424 4.967-.097 6.329-.997 4.907-.883 7.735.439 9.984 1.004 1.707 2.94 2.487 5.057 2.528 1.193.023 2.444-.078 3.618-.653 1.18-.636 2.978-2.352 4.199-3.933.408-.552.849-1.221.863-1.207.03.014-.283 1.173-.426 2.043-.211 1.276-.265 2.4-.302 3.75h5.734c.91-2.524 1.502-8.066 1.976-12.088.474-4.02.675-5.683.879-9.02.062-.987-.025-2.328.247-3.343 1.112-4.143 3.232-9.134 5.939-12.502.84-1.056 2.007-2.27 2.579-2.236.391.025.999 1.452 1.125 1.778 1.883 4.876-.129 21.367-.68 26.38-.55 5.012-.928 7.618-.918 9.536l.008 1.495h4.961c.465-.748.937-5.769 1.409-11.034.217-2.426.307-4.909.617-7.039.406-1.846.932-3.498 1.318-4.655 1.337-3.968 4.904-10.359 6.49-11.895 1.615-1.565 1.935-1.706 2.222-1.684 2.671 1.208.31 11.692-1.362 20.537-1.043 7.073-.566 13.35 1.049 14.802.707.644 1.576 1.015 2.865.968a6 6 0 0 0 1.033-.108c3.766-.775 5.381-3.315 7.563-7.826 1.006-2.08 3.354-6.779 3.462-9.039.052-1.086-.351-1.852-.868-1.945-.557-.1-1.522.724-1.83 1.931-2.198 8.601-6.558 14.693-7.298 14.916-.654-.403-.886-3.407.167-8.956 1.598-9.75 2.069-15.669 1.298-20.152-.494-2.83-1.715-5.02-3.211-5.745-1.455-.711-3.549-.568-5.206.52-3.501 2.3-5.844 7.723-7.473 11.507l.022-3.047c-.101-3.148-.049-3.395-.499-5.789-.495-2.637-1.365-6.212-4.448-6.76-4.828-.938-7.498 3.568-9.195 6.955-.052.105-1.34 3.067-1.347 3.062-.047-.204.036-3.213-1.138-5.7-.806-1.905-2.356-2.836-4.015-2.914-.991-.047-2.012.301-2.92.947-.61.435-.552.71.161.71.45 0 .624-.072.799-.347.523-.798 1.831-1.14 2.712-.494 1.803 1.266 1.711 5.586-.412 16.22-.363 1.8-.796 3.686-.883 4.208-.611 3.395-2.215 8.488-3.407 10.504-1.943 3.41-5.274 6.19-6.694 6.326-.596 0-1.317-.667-1.665-1.625-.219-.667-.343-1.088-.286-3.018.199-3.989 1.015-9.117-1.508-12.491l-.495-.682.684-.174c5.68-1.889 9.688-6.938 9.925-11.926.302-6.375-5.319-12.495-11.771-11.108m-33.637 34.66c1.153 2.421 2.934 4.741 4.74 5.842 1.855 1.238 3.672 1.445 5.404 1.538 5.261.28 8.466-3.665 11.355-7.617l.687-1.278c-.197 1.615-.483 3.154-.709 4.76-.194 1.38-.383 2.731-.467 4.135h3.916c.043-.13.359-1.922.552-2.93.913-4.773 1.17-6.629 1.908-12.377.785-6.76.989-8.226 1.89-13.13.814-4.541 2.34-9.184 3.358-10.272.363-.406.267-.836-.111-.836-1.178 0-3.248 2.692-5.153 6.71-3.228 7.528-3.62 12.853-4.446 19.123-.725 1.743-2.163 3.931-3.677 5.732-4.337 5.144-8.173 6.923-10.213 6.675-2.443-.509-4.34-5.019-4.57-12.043-.103-3.047.072-5.15.61-7.878 1.57-7.85 5.291-15.031 9.244-17.788.865-.605 1.74-1.158 2.26-1.1 1.045.18 2.082 1.641 2.3 3.313.137 2.557-.441 5.877-.792 7.146l-.27.916.428.317c.915.71 3.284 1.218 3.808.826.334-.246.932-2.116 1.078-3.35.44-3.704-.765-7.406-3.418-9.206-1.625-1.102-3.803-1.486-6.309-.916-3.722.914-7.879 4.298-11.019 9.085-1.54 2.352-3.288 6.314-4.047 9.207-1.153 4.39-.354 11.37 1.663 15.395Zm93.939 2.989c-.379 2.59 1.696 4.374 3.832 4.39 1.319.011 2.661-.652 3.464-2.214 1.019-2.017.364-4.25-1.54-5.28-2.559-1.369-5.346.34-5.756 3.104"></path><path fill="#252E31" d="M84.442 20.928c.393 1.523.539 3.917.365 5.658-.102.943-.125 1.599-.242 1.671-1.292.522-2.367.26-3.216-.369-1.516-1.12-2.232-3.631-2.232-6.08 0-2.776 1.479-5.163 2.377-5.156 1 .011 2.69 2.67 2.948 4.276m-68.526.812c.334 1.915.218 6.094-.233 8.328-1.243 7.31-5.284 11.15-6.564 11.146-.955-.003-1.923-1.048-2.494-2.93-.765-2.52-.768-6.54.136-11.566.954-4.763 3.522-10.651 5.18-10.958.675-.124 3.236 1.745 3.975 5.98m73.635-.659c-.672 2.505-1.04 3.643-2.314 5.055-.241.303-.822.94-1.095 1.197l.143-2.042c.051-4.24-1.281-7.992-3.29-9.017-.712-.363-1.979-.522-3.107-.158s-2.064 1.387-2.617 2.374c-1.697 3.156-1.005 8.589 2.508 10.342 1.791.866 3.338.672 4.65.398l-.088.508c-.218 1.204-1.168 3.913-1.953 5.48-1.37 2.685-4.142 5.768-5.488 5.62-.931-.1-2.011-1.556-2.758-4.237-.723-2.92-.56-7.904.622-12.55.92-3.613 2.039-7.045 4.495-8.508.215-.128.727-.325.861-.38.135-.055.173-.323-.488-.319-1.67.01-5.542 1.782-8.515 6.188-2.151 3.308-3.27 6.165-3.489 9.574l-.12 2.079-1.13 2.08c-1.878 3.965-4.645 6.59-5.016 6.585-.443-.182-1.415-1.175.109-8.163 1.192-6.21 1.497-8.53 1.497-11.389-.014-2.83-.509-4.643-1.642-5.92-1.047-1.204-3.622-1.607-5.308-.838-3.632 1.699-6.34 7.046-7.108 9.03-.047.124 0-7.446-3.146-8.738-5.735-2.52-8.758 4.887-10.071 7.728.01-1.003.246-6.466-2.48-7.8-.814-.392-2.122-.522-2.95-.305-1.309.349-3.02 1.959-3.02 2.873-.217 1.471 1.618-1.862 3.551-2.072.407-.044.404 1.206.37 2.57 0 1.276-2.573 10.552-3.649 13.178-2.955 6.7-5.96 9.43-6.319 9.384-1.273-.162.216-10.3.461-11.69a705 705 0 0 0 1.716-10.157c.16-.957.334-2.277.392-2.945l.102-1.19h-5.669l-.32 1.626c-.174.899-.363 2.03-.422 2.51l-.098.916c-1.778-7.037-7.37-6.157-11.588-2.324-1.774 1.64-3.024 3.555-4.114 6.297C.391 27.137-.132 30.039.028 33.042c.202 4.159 2.387 8.987 7.252 9.41 4.877-.267 6.946-4.136 8.56-7.757.064 7.666 2.384 8.742 5.844 7.176 3.012-1.364 5.547-6.508 7.168-10.788.277-.725.581-1.708.538-1.462-.573 3.746-1.455 8.093-1.86 11.938l-.087.914h5.218c1.23-3.683 2.006-8.415 2.5-12.26.364-2.786.669-3.729 2.253-6.892 1.12-2.234 1.975-3.66 3.24-5.037.875-.94 1.932-2.232 2.4-2.072.836.285 1.107 6.434.334 11.97-.218 1.509-.64 4.512-.959 6.674-.45 3.133-.872 6.906-.872 7.617h4.785c.41-2.123.982-3.732 1.28-5.394.343-1.91.59-3.427.86-6.036.165-1.607.361-2.351.846-3.806 1.226-3.672 2.51-5.7 3.596-7.325 1.556-2.58 4.288-4.674 5.014-4.415 1.567.56.489 6.324-.546 10.146-1.832 7.53-1.983 11.142-.863 14.32.72 2.081 2.222 2.51 3.837 2.51 1.501 0 3.227-.492 4.172-1.712.8-.87 2.151-2.858 2.85-4.193.217-.421.49-.966.533-.966s.16.763.407 1.459c1.245 3.651 3.902 5.415 6.744 5.412 2.364-.003 4.86-1.23 6.75-3.584 2.063-2.568 3.284-5.47 4.156-9.866.02-.087.047-.236.057-.336.14-.08.385-.189.583-.288.32-.16 1.032-.725 1.584-1.233a29 29 0 0 1 1.158-1.05q-.006-.093-.01-.184a28 28 0 0 1-.04-1.799l.001-.16a15 15 0 0 1 .01-.377q.002-.094.006-.186l.006-.121q0-.033.003-.064a21 21 0 0 1 .043-.684l.015-.178q.02-.206.039-.389.024-.228.048-.407l.012-.093.016-.112q.012-.084.021-.146l.007-.047z"></path></g><defs><clipPath id="enterprise-logo_svg__a"><path fill="#fff" d="M0 0h396.5v61H0z"></path></clipPath></defs></svg>