<svg preserveAspectRatio="none" width="100%" height="100%" overflow="visible" style="display: block;" viewBox="0 0 277.271 98.921" fill="none" xmlns="http://www.w3.org/2000/svg">
<g id="Union">
<mask id="path-1-outside-1_0_4" maskUnits="userSpaceOnUse" x="-0.215929" y="-0.270409" width="278" height="100" fill="black">
<rect fill="white" x="-0.215929" y="-0.270409" width="278" height="100"/>
<path d="M128.194 46.5802C126.682 49.8181 125.432 53.324 124.056 56.5284C119.198 67.8378 112.331 72.6969 100.242 74.461C95.1811 75.2865 90.7426 76.0139 85.9891 78.171C78.2299 81.6913 73.3027 93.0136 63.788 91.7862C62.2868 91.5923 61.8815 90.8318 62.1962 89.4259C62.3734 89.173 62.2964 89.254 62.5058 89.0558C62.9821 88.6046 64.421 89.5525 65.1044 89.5001C65.4554 89.4736 65.6463 89.3319 65.872 89.0812L65.705 88.9151C65.0527 88.7488 63.7033 88.4622 63.8143 87.6007C63.9972 86.1834 66.7974 85.7186 67.8983 85.3243C70.0208 84.565 71.4059 83.4986 73.1493 82.1397C74.2349 81.2992 75.2653 80.3901 76.2343 79.4171C77.6951 77.9333 79.3961 75.8525 81.1884 74.8663C83.54 73.5721 87.1207 72.984 89.8036 72.4005C96.6827 70.9043 102.387 69.7063 108.498 66.0401C117.139 60.8567 120.751 52.7466 128.177 46.4132L128.194 46.5802ZM206.706 6.72959C212.651 8.55687 214.274 7.67264 219.887 7.29795C225.978 6.60691 225.893 10.5805 230.654 11.6056C234.764 12.4903 238.456 13.4127 242.073 15.7745C244.422 17.3087 244.765 19.5879 246.833 21.2989C250.345 24.1558 254.019 26.8202 257.642 29.5323C258.372 30.078 260.006 31.0592 260.041 31.9679C259.633 32.8077 257.796 33.4959 256.902 33.9405C252.27 36.2767 247.49 33.0348 243.086 31.4356C235.286 28.6035 223.722 24.6983 219.94 35.1866C218.955 32.824 219.164 31.2071 219.859 28.8341C216.894 31.6495 216.307 34.3843 216.073 38.3116C213.972 35.694 214.016 34.9113 213.591 31.6632C212.295 36.3794 211.989 40.7981 207.889 43.9913C207.933 42.2 207.891 40.4894 207.127 38.8565C206.939 42.1534 206.158 43.7508 205.152 46.8243C204.69 48.2345 204.847 49.2656 206.084 50.0899C208.042 51.3927 210.485 52.287 212.692 53.087C216.566 54.4848 220.475 55.7736 224.42 56.9532C226.842 57.6865 229.735 58.4733 232.068 59.3556C234.378 60.3297 236.504 61.9726 238.631 63.2638C244.505 66.8274 250.438 69.773 256.853 72.2062C258.544 72.8474 260.517 75.9835 257.894 77.0401C255.032 78.1937 256.028 75.1235 254.367 74.4669C254.183 74.9793 254.837 75.7186 254.558 76.6202C253.553 77.718 250.647 76.4125 249.477 75.9767C247.582 75.2701 246.106 73.6805 244.362 72.7169C242.49 71.6847 240.539 70.7741 238.687 69.7032C233.092 66.442 228.52 63.9807 221.77 64.463C219.114 64.6527 216.418 65.1425 213.708 65.4269C214.701 64.7488 215.716 63.7592 216.6 62.9259C214.272 63.0321 212.554 63.6937 210.293 64.2062C209.021 64.4942 207.765 64.6527 206.475 64.8155C207.684 64.0434 208.882 62.8293 209.907 61.8097C206.886 61.7491 204.262 62.4174 201.271 62.797C197.555 63.268 195.105 62.9146 191.491 62.3351C194.351 61.8511 195.931 60.8216 198.01 58.878C196.668 59.0386 195.276 59.3549 193.855 59.5118C190.06 59.93 187.403 59.4183 183.801 58.5782C191.784 57.3931 192.111 49.073 187.336 44.0782C190.843 52.9985 185.253 55.8482 177.265 55.5636C180.049 54.1399 181.951 53.0117 182.665 49.7198C178.408 52.5297 175.798 53.6617 170.502 53.256C173.592 52.3519 175.174 50.9664 176.891 48.297C171.427 51.0261 167.301 51.7945 161.332 50.5763C163.897 49.8015 164.844 48.9177 166.69 46.9962C166.401 47.0172 165.991 47.0811 165.717 47.1261C158.747 48.2641 155.509 46.4461 150.234 42.2208C146.871 39.5275 141.935 37.4926 137.456 38.1603C142.531 35.9126 146.759 36.2845 151.961 37.6554C147.188 33.3402 139.542 32.7122 134.056 35.9522C128.862 39.0191 125.32 43.9157 121.598 48.5226C117.765 53.2654 113.788 58.0021 108.903 61.6993C102.016 66.8256 93.6137 68.8135 85.2909 70.0938C80.8528 70.7768 76.6505 71.4527 72.4628 73.2296C65.4391 76.2105 61.4031 82.8297 54.5077 85.8985C52.5718 86.5829 48.6755 87.4258 47.2069 85.5401C46.8384 85.0669 46.6856 84.4615 46.787 83.8702C46.8837 83.321 47.0874 83.078 47.5038 82.7511C48.3564 82.0832 48.7696 83.2655 49.7421 83.3849C50.698 83.5034 51.2807 83.4232 52.2333 83.3038C51.4341 82.9928 49.4164 82.5101 49.3349 81.6329C49.1315 79.4451 53.1806 79.2242 54.4921 78.8067C57.076 77.9836 59.5782 76.3552 61.5936 74.712C62.8379 73.6969 64.0041 72.5884 65.0809 71.3976C65.9622 70.4288 68.0944 67.1928 69.1532 66.9825C74.5657 65.9051 80.7257 64.6578 84.4354 60.1612C82.1292 60.0333 80.3958 60.1758 78.1132 60.6954C80.8832 57.5133 83.7762 56.0684 87.7724 54.8761C84.7528 54.1827 82.0566 54.2847 79.039 54.8175C82.579 51.4121 85.1436 50.6277 89.6952 49.3937C82.9153 48.4149 76.8396 50.3255 71.6132 54.7247C66.6819 58.875 63.7405 62.6841 56.9979 63.7696C59.5964 62.1885 60.9678 60.6909 62.3632 58.0001C56.5213 61.6415 52.3383 62.7362 45.4647 61.1749C48.8063 60.624 50.4089 59.6758 52.83 57.294C46.1369 59.1457 41.4254 59.1001 35.703 54.9161C39.5264 55.1525 41.7963 54.7031 45.1972 52.9015C40.591 53.0382 37.2607 52.5302 33.0956 50.3087C31.2514 49.3256 30.2698 48.5381 28.2265 48.0079C31.8217 46.9383 33.1829 47.2154 36.9179 47.5147L36.7704 47.4054C32.5978 44.3796 27.9643 43.3199 22.9149 44.1446C26.6427 40.846 29.8505 40.4262 34.6845 41.5655C33.2543 40.3852 31.8512 39.505 30.1161 38.8165C26.4599 37.4075 22.4012 37.4617 18.7841 38.9679C19.6246 37.6 20.7564 36.4341 22.0985 35.5528C24.1831 34.1938 26.3026 33.6541 28.7675 33.586C36.186 33.3815 41.9037 38.0787 48.2841 41.2198C51.6392 42.9044 55.1989 44.1475 58.8739 44.9171C65.3203 46.3087 71.9849 46.3529 78.4491 45.047C79.3097 44.8769 81.0624 44.5891 81.746 44.1446L81.7431 43.9552C80.8002 43.4766 78.1345 43.436 76.9725 43.3683C81.3113 39.8396 85.902 40.5676 91.1395 39.7765C93.6159 39.4023 94.8869 39.0375 97.1835 38.1329C93.5363 37.5986 92.2238 37.2397 89.119 35.4718C94.7271 35.8777 97.6165 35.2552 102.595 32.7813C99.215 32.5859 98.0194 32.4687 94.7831 31.5724C100.507 26.2916 109.937 27.1619 117.032 24.5021C121.321 22.8943 124.449 20.8963 128.504 18.9083C137.077 14.6605 146.32 11.9251 155.823 10.8214C168.288 9.43876 176.734 11.1935 188.351 15.2599C193.937 17.2148 203.415 17.2752 208.908 15.1769C205.135 14.3442 203.332 13.982 200.688 11.1173C205.087 12.6825 206.794 11.8826 211.107 12.1144C212.504 12.1894 217.794 13.7819 219.289 14.3009C217.496 16.2513 215.706 16.5656 213.236 17.1378C217.514 17.8081 221.002 17.3083 224.808 15.3302C221.992 9.683 217.165 12.1246 212.239 10.42C209.626 9.51522 208.598 8.62409 206.706 6.72959ZM211.141 44.4308C218.282 49.3191 232.38 50.1718 240.729 52.8731C246.257 54.6604 251.51 58.4064 257.058 60.3614C260.212 61.4723 262.829 61.7173 266.066 62.1554C267.414 62.4284 269.117 62.9858 269.916 64.1524C270.989 65.7211 268.9 67.7831 267.308 67.2149C267.126 67.1507 267.054 66.7315 266.986 66.5274C266.495 65.6578 265.887 65.2695 265.105 64.6847C265.359 65.2621 265.816 66.0086 265.764 66.6554C265.736 66.9958 265.645 67.2993 265.355 67.5089C264.66 68.0102 263.221 67.8052 262.403 67.7188C259.979 67.4626 257.887 66.2965 255.707 65.294C253.176 64.1295 250.568 63.1137 248.071 61.881C244.583 60.1575 241.56 58.0494 237.718 57.1163C234.972 56.4505 232.15 56.1171 229.404 55.4444C226.724 54.787 211.47 50.1887 210.443 48.4005C209.907 47.4672 210.754 45.3605 211.141 44.4308ZM242.782 21.1964C242.204 19.2604 241.981 17.5909 239.57 17.8858C238.644 18.0236 237.998 18.1451 237.088 18.3624C238.548 19.675 239.063 20.2901 240.966 20.8292L242.782 21.1964Z"/>
</mask>
<path d="M128.194 46.5802C126.682 49.8181 125.432 53.324 124.056 56.5284C119.198 67.8378 112.331 72.6969 100.242 74.461C95.1811 75.2865 90.7426 76.0139 85.9891 78.171C78.2299 81.6913 73.3027 93.0136 63.788 91.7862C62.2868 91.5923 61.8815 90.8318 62.1962 89.4259C62.3734 89.173 62.2964 89.254 62.5058 89.0558C62.9821 88.6046 64.421 89.5525 65.1044 89.5001C65.4554 89.4736 65.6463 89.3319 65.872 89.0812L65.705 88.9151C65.0527 88.7488 63.7033 88.4622 63.8143 87.6007C63.9972 86.1834 66.7974 85.7186 67.8983 85.3243C70.0208 84.565 71.4059 83.4986 73.1493 82.1397C74.2349 81.2992 75.2653 80.3901 76.2343 79.4171C77.6951 77.9333 79.3961 75.8525 81.1884 74.8663C83.54 73.5721 87.1207 72.984 89.8036 72.4005C96.6827 70.9043 102.387 69.7063 108.498 66.0401C117.139 60.8567 120.751 52.7466 128.177 46.4132L128.194 46.5802ZM206.706 6.72959C212.651 8.55687 214.274 7.67264 219.887 7.29795C225.978 6.60691 225.893 10.5805 230.654 11.6056C234.764 12.4903 238.456 13.4127 242.073 15.7745C244.422 17.3087 244.765 19.5879 246.833 21.2989C250.345 24.1558 254.019 26.8202 257.642 29.5323C258.372 30.078 260.006 31.0592 260.041 31.9679C259.633 32.8077 257.796 33.4959 256.902 33.9405C252.27 36.2767 247.49 33.0348 243.086 31.4356C235.286 28.6035 223.722 24.6983 219.94 35.1866C218.955 32.824 219.164 31.2071 219.859 28.8341C216.894 31.6495 216.307 34.3843 216.073 38.3116C213.972 35.694 214.016 34.9113 213.591 31.6632C212.295 36.3794 211.989 40.7981 207.889 43.9913C207.933 42.2 207.891 40.4894 207.127 38.8565C206.939 42.1534 206.158 43.7508 205.152 46.8243C204.69 48.2345 204.847 49.2656 206.084 50.0899C208.042 51.3927 210.485 52.287 212.692 53.087C216.566 54.4848 220.475 55.7736 224.42 56.9532C226.842 57.6865 229.735 58.4733 232.068 59.3556C234.378 60.3297 236.504 61.9726 238.631 63.2638C244.505 66.8274 250.438 69.773 256.853 72.2062C258.544 72.8474 260.517 75.9835 257.894 77.0401C255.032 78.1937 256.028 75.1235 254.367 74.4669C254.183 74.9793 254.837 75.7186 254.558 76.6202C253.553 77.718 250.647 76.4125 249.477 75.9767C247.582 75.2701 246.106 73.6805 244.362 72.7169C242.49 71.6847 240.539 70.7741 238.687 69.7032C233.092 66.442 228.52 63.9807 221.77 64.463C219.114 64.6527 216.418 65.1425 213.708 65.4269C214.701 64.7488 215.716 63.7592 216.6 62.9259C214.272 63.0321 212.554 63.6937 210.293 64.2062C209.021 64.4942 207.765 64.6527 206.475 64.8155C207.684 64.0434 208.882 62.8293 209.907 61.8097C206.886 61.7491 204.262 62.4174 201.271 62.797C197.555 63.268 195.105 62.9146 191.491 62.3351C194.351 61.8511 195.931 60.8216 198.01 58.878C196.668 59.0386 195.276 59.3549 193.855 59.5118C190.06 59.93 187.403 59.4183 183.801 58.5782C191.784 57.3931 192.111 49.073 187.336 44.0782C190.843 52.9985 185.253 55.8482 177.265 55.5636C180.049 54.1399 181.951 53.0117 182.665 49.7198C178.408 52.5297 175.798 53.6617 170.502 53.256C173.592 52.3519 175.174 50.9664 176.891 48.297C171.427 51.0261 167.301 51.7945 161.332 50.5763C163.897 49.8015 164.844 48.9177 166.69 46.9962C166.401 47.0172 165.991 47.0811 165.717 47.1261C158.747 48.2641 155.509 46.4461 150.234 42.2208C146.871 39.5275 141.935 37.4926 137.456 38.1603C142.531 35.9126 146.759 36.2845 151.961 37.6554C147.188 33.3402 139.542 32.7122 134.056 35.9522C128.862 39.0191 125.32 43.9157 121.598 48.5226C117.765 53.2654 113.788 58.0021 108.903 61.6993C102.016 66.8256 93.6137 68.8135 85.2909 70.0938C80.8528 70.7768 76.6505 71.4527 72.4628 73.2296C65.4391 76.2105 61.4031 82.8297 54.5077 85.8985C52.5718 86.5829 48.6755 87.4258 47.2069 85.5401C46.8384 85.0669 46.6856 84.4615 46.787 83.8702C46.8837 83.321 47.0874 83.078 47.5038 82.7511C48.3564 82.0832 48.7696 83.2655 49.7421 83.3849C50.698 83.5034 51.2807 83.4232 52.2333 83.3038C51.4341 82.9928 49.4164 82.5101 49.3349 81.6329C49.1315 79.4451 53.1806 79.2242 54.4921 78.8067C57.076 77.9836 59.5782 76.3552 61.5936 74.712C62.8379 73.6969 64.0041 72.5884 65.0809 71.3976C65.9622 70.4288 68.0944 67.1928 69.1532 66.9825C74.5657 65.9051 80.7257 64.6578 84.4354 60.1612C82.1292 60.0333 80.3958 60.1758 78.1132 60.6954C80.8832 57.5133 83.7762 56.0684 87.7724 54.8761C84.7528 54.1827 82.0566 54.2847 79.039 54.8175C82.579 51.4121 85.1436 50.6277 89.6952 49.3937C82.9153 48.4149 76.8396 50.3255 71.6132 54.7247C66.6819 58.875 63.7405 62.6841 56.9979 63.7696C59.5964 62.1885 60.9678 60.6909 62.3632 58.0001C56.5213 61.6415 52.3383 62.7362 45.4647 61.1749C48.8063 60.624 50.4089 59.6758 52.83 57.294C46.1369 59.1457 41.4254 59.1001 35.703 54.9161C39.5264 55.1525 41.7963 54.7031 45.1972 52.9015C40.591 53.0382 37.2607 52.5302 33.0956 50.3087C31.2514 49.3256 30.2698 48.5381 28.2265 48.0079C31.8217 46.9383 33.1829 47.2154 36.9179 47.5147L36.7704 47.4054C32.5978 44.3796 27.9643 43.3199 22.9149 44.1446C26.6427 40.846 29.8505 40.4262 34.6845 41.5655C33.2543 40.3852 31.8512 39.505 30.1161 38.8165C26.4599 37.4075 22.4012 37.4617 18.7841 38.9679C19.6246 37.6 20.7564 36.4341 22.0985 35.5528C24.1831 34.1938 26.3026 33.6541 28.7675 33.586C36.186 33.3815 41.9037 38.0787 48.2841 41.2198C51.6392 42.9044 55.1989 44.1475 58.8739 44.9171C65.3203 46.3087 71.9849 46.3529 78.4491 45.047C79.3097 44.8769 81.0624 44.5891 81.746 44.1446L81.7431 43.9552C80.8002 43.4766 78.1345 43.436 76.9725 43.3683C81.3113 39.8396 85.902 40.5676 91.1395 39.7765C93.6159 39.4023 94.8869 39.0375 97.1835 38.1329C93.5363 37.5986 92.2238 37.2397 89.119 35.4718C94.7271 35.8777 97.6165 35.2552 102.595 32.7813C99.215 32.5859 98.0194 32.4687 94.7831 31.5724C100.507 26.2916 109.937 27.1619 117.032 24.5021C121.321 22.8943 124.449 20.8963 128.504 18.9083C137.077 14.6605 146.32 11.9251 155.823 10.8214C168.288 9.43876 176.734 11.1935 188.351 15.2599C193.937 17.2148 203.415 17.2752 208.908 15.1769C205.135 14.3442 203.332 13.982 200.688 11.1173C205.087 12.6825 206.794 11.8826 211.107 12.1144C212.504 12.1894 217.794 13.7819 219.289 14.3009C217.496 16.2513 215.706 16.5656 213.236 17.1378C217.514 17.8081 221.002 17.3083 224.808 15.3302C221.992 9.683 217.165 12.1246 212.239 10.42C209.626 9.51522 208.598 8.62409 206.706 6.72959ZM211.141 44.4308C218.282 49.3191 232.38 50.1718 240.729 52.8731C246.257 54.6604 251.51 58.4064 257.058 60.3614C260.212 61.4723 262.829 61.7173 266.066 62.1554C267.414 62.4284 269.117 62.9858 269.916 64.1524C270.989 65.7211 268.9 67.7831 267.308 67.2149C267.126 67.1507 267.054 66.7315 266.986 66.5274C266.495 65.6578 265.887 65.2695 265.105 64.6847C265.359 65.2621 265.816 66.0086 265.764 66.6554C265.736 66.9958 265.645 67.2993 265.355 67.5089C264.66 68.0102 263.221 67.8052 262.403 67.7188C259.979 67.4626 257.887 66.2965 255.707 65.294C253.176 64.1295 250.568 63.1137 248.071 61.881C244.583 60.1575 241.56 58.0494 237.718 57.1163C234.972 56.4505 232.15 56.1171 229.404 55.4444C226.724 54.787 211.47 50.1887 210.443 48.4005C209.907 47.4672 210.754 45.3605 211.141 44.4308ZM242.782 21.1964C242.204 19.2604 241.981 17.5909 239.57 17.8858C238.644 18.0236 237.998 18.1451 237.088 18.3624C238.548 19.675 239.063 20.2901 240.966 20.8292L242.782 21.1964Z" fill="var(--fill-0, black)"/>
<path d="M128.194 46.5802L134.573 49.5592L135.401 47.7876L135.196 45.8432L128.194 46.5802ZM124.056 56.5284L130.524 59.3069L130.525 59.3066L124.056 56.5284ZM100.242 74.461L99.2254 67.4945L99.167 67.503L99.1087 67.5125L100.242 74.461ZM85.9891 78.171L88.8979 84.5823L88.8984 84.5821L85.9891 78.171ZM63.788 91.7862L62.886 98.7685L62.8872 98.7687L63.788 91.7862ZM62.1962 89.4259L56.4303 85.386L55.6303 86.5278L55.3258 87.8883L62.1962 89.4259ZM62.5058 89.0558L67.3464 94.1679L67.3472 94.1672L62.5058 89.0558ZM65.1044 89.5001L64.574 82.4798L64.5665 82.4804L65.1044 89.5001ZM65.872 89.0812L71.1053 93.7905L75.5861 88.8111L70.8356 84.0883L65.872 89.0812ZM65.705 88.9151L70.6686 83.9223L69.306 82.5677L67.4442 82.093L65.705 88.9151ZM63.8143 87.6007L56.8319 86.6996L56.8317 86.701L63.8143 87.6007ZM67.8983 85.3243L65.5267 78.6955L65.5248 78.6962L67.8983 85.3243ZM73.1493 82.1397L68.8391 76.5731L68.8301 76.58L68.8212 76.5869L73.1493 82.1397ZM76.2343 79.4171L81.2227 84.3851L81.2369 84.3709L81.2511 84.3565L76.2343 79.4171ZM81.1884 74.8663L84.5823 81.0346L84.5829 81.0342L81.1884 74.8663ZM89.8036 72.4005L88.3073 65.521H88.3073L89.8036 72.4005ZM108.498 66.0401L104.876 60.0027L104.876 60.0031L108.498 66.0401ZM128.177 46.4132L135.178 45.6762L133.779 32.3817L123.608 41.0566L128.177 46.4132ZM206.706 6.72959L208.774 0L201.724 11.7042L206.706 6.72959ZM219.887 7.29795L220.356 14.3226L220.518 14.3118L220.68 14.2934L219.887 7.29795ZM230.654 11.6056L229.172 18.4882L229.172 18.4882L230.654 11.6056ZM242.073 15.7745L245.923 9.87984L245.922 9.8793L242.073 15.7745ZM246.833 21.2989L242.345 26.7232L242.367 26.7419L242.39 26.7603L246.833 21.2989ZM257.642 29.5323L253.424 35.1687L253.426 35.1706L257.642 29.5323ZM260.041 31.9679L266.375 35.0422L267.144 33.4562L267.076 31.6946L260.041 31.9679ZM256.902 33.9405L253.766 27.6374L253.749 27.6459L253.732 27.6545L256.902 33.9405ZM243.086 31.4356L240.683 38.0532L240.683 38.0532L243.086 31.4356ZM219.94 35.1866L213.442 37.8957L220.416 54.6249L226.563 37.5744L219.94 35.1866ZM219.859 28.8341L226.615 30.8142L233.966 5.73279L215.012 23.7283L219.859 28.8341ZM216.073 38.3116L210.582 42.7182L222.013 56.9612L223.101 38.7309L216.073 38.3116ZM213.591 31.6632L220.571 30.7492L206.802 29.7986L213.591 31.6632ZM207.889 43.9913L200.85 43.8169L200.482 58.6815L212.214 49.5462L207.889 43.9913ZM207.127 38.8565L213.504 35.8737L200.098 38.4559L207.127 38.8565ZM205.152 46.8243L211.843 49.0152L211.843 49.0146L205.152 46.8243ZM206.084 50.0899L202.179 55.9479L202.185 55.9519L206.084 50.0899ZM212.692 53.087L210.293 59.7058L210.302 59.7093L212.692 53.087ZM224.42 56.9532L226.46 50.215L226.448 50.2115L226.437 50.208L224.42 56.9532ZM232.068 59.3556L234.804 52.8687L234.682 52.8173L234.559 52.7705L232.068 59.3556ZM238.631 63.2638L234.977 69.282L234.979 69.2831L238.631 63.2638ZM256.853 72.2062L259.35 65.6235L259.35 65.6234L256.853 72.2062ZM257.894 77.0401L255.264 70.5098L255.263 70.5101L257.894 77.0401ZM254.367 74.4669L256.956 67.9197L250.2 65.2488L247.742 72.0849L254.367 74.4669ZM254.558 76.6202L259.75 81.3758L260.818 80.21L261.285 78.6995L254.558 76.6202ZM249.477 75.9767L247.018 82.5734L247.019 82.5737L249.477 75.9767ZM244.362 72.7169L247.767 66.5544L247.761 66.5515L244.362 72.7169ZM238.687 69.7032L235.142 75.7859L235.152 75.7917L235.162 75.7974L238.687 69.7032ZM221.77 64.463L222.272 71.4854L222.272 71.4854L221.77 64.463ZM213.708 65.4269L209.738 59.6125L214.443 72.4287L213.708 65.4269ZM216.6 62.9259L221.429 68.0486L235.241 55.0272L216.278 55.8929L216.6 62.9259ZM210.293 64.2062L211.848 71.0726L211.849 71.0723L210.293 64.2062ZM206.475 64.8155L202.686 58.8816L207.356 71.8005L206.475 64.8155ZM209.907 61.8097L214.872 66.8009L226.631 55.1032L210.048 54.7708L209.907 61.8097ZM201.271 62.797L202.157 69.7814L202.158 69.7812L201.271 62.797ZM191.491 62.3351L190.316 55.3934L190.376 69.2865L191.491 62.3351ZM198.01 58.878L202.818 64.0202L218.525 49.3317L197.173 51.8876L198.01 58.878ZM193.855 59.5118L194.626 66.5098L194.629 66.5095L193.855 59.5118ZM183.801 58.5782L182.767 51.6142L182.202 65.4345L183.801 58.5782ZM187.336 44.0782L192.425 39.2133L180.784 46.6543L187.336 44.0782ZM177.265 55.5636L174.06 49.295L149.923 61.6344L177.014 62.5994L177.265 55.5636ZM182.665 49.7198L189.545 51.212L193.208 34.3252L178.787 43.8441L182.665 49.7198ZM170.502 53.256L168.525 46.4988L169.964 60.2757L170.502 53.256ZM176.891 48.297L182.812 52.1066L196.689 30.5397L173.746 41.9985L176.891 48.297ZM161.332 50.5763L159.296 43.8366L159.924 57.4744L161.332 50.5763ZM166.69 46.9962L171.767 51.8744L184.481 38.6439L166.18 39.9744L166.69 46.9962ZM165.717 47.1261L166.851 54.0744L166.857 54.0735L165.717 47.1261ZM150.234 42.2208L154.636 36.7261L154.635 36.7253L150.234 42.2208ZM137.456 38.1603L134.605 31.7229L138.494 45.1236L137.456 38.1603ZM151.961 37.6554L150.167 44.4632L156.682 32.433L151.961 37.6554ZM134.056 35.9522L130.476 29.89L130.476 29.8901L134.056 35.9522ZM121.598 48.5226L116.121 44.0978L116.121 44.0979L121.598 48.5226ZM108.903 61.6993L113.107 67.347L113.13 67.33L113.152 67.3129L108.903 61.6993ZM85.2909 70.0938L84.2205 63.1354L84.2202 63.1354L85.2909 70.0938ZM72.4628 73.2296L69.7128 66.7485L69.7123 66.7488L72.4628 73.2296ZM54.5077 85.8985L56.8543 92.5363L57.1164 92.4436L57.3703 92.3306L54.5077 85.8985ZM47.2069 85.5401L52.7615 81.2143L52.7612 81.2139L47.2069 85.5401ZM46.787 83.8702L39.8533 82.6495L39.8506 82.6651L39.8479 82.6807L46.787 83.8702ZM47.5038 82.7511L43.1622 77.2088L43.1564 77.2134L47.5038 82.7511ZM49.7421 83.3849L50.6083 76.398L50.5995 76.3969L49.7421 83.3849ZM52.2333 83.3038L53.1089 90.2895L54.7866 76.7428L52.2333 83.3038ZM49.3349 81.6329L42.3248 82.2846L42.3248 82.2848L49.3349 81.6329ZM54.4921 78.8067L56.6275 85.5154L56.6291 85.5149L54.4921 78.8067ZM61.5936 74.712L66.0423 80.1687L66.0443 80.1671L61.5936 74.712ZM65.0809 71.3976L59.8729 66.6603L59.8659 66.6679L59.8591 66.6755L65.0809 71.3976ZM69.1532 66.9825L70.5247 73.888L70.5278 73.8874L69.1532 66.9825ZM84.4354 60.1612L89.8661 64.6416L98.726 53.9025L84.8252 53.1317L84.4354 60.1612ZM78.1132 60.6954L72.8029 56.0729L58.6338 72.3503L79.6759 67.5601L78.1132 60.6954ZM87.7724 54.8761L89.7853 61.6225L115.368 53.9892L89.348 48.0143L87.7724 54.8761ZM79.039 54.8175L74.1581 49.7437L57.4988 65.7697L80.263 61.7506L79.039 54.8175ZM89.6952 49.3937L91.5375 56.1887L90.7012 42.4256L89.6952 49.3937ZM71.6132 54.7247L76.1466 60.1112L76.1469 60.1109L71.6132 54.7247ZM56.9979 63.7696L53.3383 57.7552L58.117 70.7205L56.9979 63.7696ZM62.3632 58.0001L68.6131 61.2411L80.4384 38.4372L58.639 52.0254L62.3632 58.0001ZM45.4647 61.1749L44.3195 54.2284L43.9052 68.0403L45.4647 61.1749ZM52.83 57.294L57.7674 62.3128L77.1269 43.2674L50.9527 50.5086L52.83 57.294ZM35.703 54.9161L36.1375 47.8892L12.1343 46.405L31.5476 60.5993L35.703 54.9161ZM45.1972 52.9015L48.4929 59.1227L44.9883 45.8642L45.1972 52.9015ZM33.0956 50.3087L36.4088 44.0967L36.4076 44.096L33.0956 50.3087ZM28.2265 48.0079L26.2188 41.2599L1.97938 48.4715L26.4584 54.8226L28.2265 48.0079ZM36.9179 47.5147L36.3553 54.5326L60.8436 56.4955L41.112 41.8601L36.9179 47.5147ZM36.7704 47.4054L40.9646 41.7507L40.9341 41.7281L40.9034 41.7059L36.7704 47.4054ZM22.9149 44.1446L18.2494 38.8722L0 55.0209L24.0498 51.0929L22.9149 44.1446ZM34.6845 41.5655L33.0693 48.4181L39.1657 36.1355L34.6845 41.5655ZM30.1161 38.8165L32.713 32.2726L32.6804 32.2597L32.6478 32.2471L30.1161 38.8165ZM18.7841 38.9679L12.7857 35.2821L1.38241 53.8401L21.4904 45.4673L18.7841 38.9679ZM22.0985 35.5528L18.2536 29.6551L18.244 29.6614L18.2344 29.6677L22.0985 35.5528ZM28.7675 33.586L28.5734 26.5484L28.5732 26.5484L28.7675 33.586ZM48.2841 41.2198L51.4431 34.928L51.4184 34.9157L51.3937 34.9035L48.2841 41.2198ZM58.8739 44.9171L60.3595 38.0353L60.3383 38.0307L60.317 38.0263L58.8739 44.9171ZM78.4491 45.047L77.0844 38.1402L77.0697 38.1431L77.055 38.1461L78.4491 45.047ZM81.746 44.1446L85.584 50.0468L88.8456 47.9259L88.7855 44.0358L81.746 44.1446ZM81.7431 43.9552L88.7825 43.8463L88.7169 39.5997L84.9298 37.6774L81.7431 43.9552ZM76.9725 43.3683L72.5304 37.9063L58.4701 49.3414L76.5626 50.3966L76.9725 43.3683ZM91.1395 39.7765L92.1911 46.7378L92.1915 46.7378L91.1395 39.7765ZM97.1835 38.1329L99.7637 44.6834L124.353 34.9979L98.204 31.1669L97.1835 38.1329ZM89.119 35.4718L89.6273 28.4498L85.6354 41.5898L89.119 35.4718ZM102.595 32.7813L105.728 39.0861L129.477 27.2843L103.001 25.7528L102.595 32.7813ZM94.7831 31.5724L90.0091 26.3979L80.7075 34.9795L92.904 38.3573L94.7831 31.5724ZM117.032 24.5021L114.561 17.9097L114.561 17.9097L117.032 24.5021ZM128.504 18.9083L131.603 25.2298L131.616 25.2233L131.629 25.2168L128.504 18.9083ZM155.823 10.8214L155.047 3.82398L155.029 3.82598L155.011 3.82807L155.823 10.8214ZM188.351 15.2599L186.026 21.9049L186.026 21.9049L188.351 15.2599ZM208.908 15.1769L211.42 21.7537L233.376 13.367L210.425 8.30197L208.908 15.1769ZM200.688 11.1173L203.049 4.48436L195.514 15.8917L200.688 11.1173ZM211.107 12.1144L210.73 19.1445L210.73 19.1445L211.107 12.1144ZM219.289 14.3009L224.472 19.0656L231.732 11.1676L221.598 7.64982L219.289 14.3009ZM213.236 17.1378L211.647 10.2792L212.146 24.0932L213.236 17.1378ZM224.808 15.3302L228.055 21.5772L234.199 18.3842L231.109 12.188L224.808 15.3302ZM212.239 10.42L209.936 17.0728L209.937 17.0732L212.239 10.42ZM211.141 44.4308L215.117 38.621L207.967 33.7272L204.64 41.7273L211.141 44.4308ZM240.729 52.8731L238.562 59.5716L238.563 59.572L240.729 52.8731ZM257.058 60.3614L254.719 67.0016L254.719 67.0018L257.058 60.3614ZM266.066 62.1554L267.464 55.2553L267.239 55.2095L267.01 55.1786L266.066 62.1554ZM269.916 64.1524L275.727 60.1779L275.725 60.1755L269.916 64.1524ZM267.308 67.2149L269.673 60.5839L269.665 60.581L269.657 60.5781L267.308 67.2149ZM266.986 66.5274L273.672 64.3223L273.456 63.6675L273.117 63.0671L266.986 66.5274ZM265.105 64.6847L269.325 59.0489L247.865 42.982L258.661 67.52L265.105 64.6847ZM265.764 66.6554L272.781 67.2279L272.781 67.2259L265.764 66.6554ZM265.355 67.5089L269.472 73.2199L269.483 73.2125L265.355 67.5089ZM262.403 67.7188L261.663 74.7202L261.664 74.7203L262.403 67.7188ZM255.707 65.294L252.764 71.6896L252.765 71.6904L255.707 65.294ZM248.071 61.881L244.952 68.1928L244.955 68.194L248.071 61.881ZM237.718 57.1163L239.379 50.2748L239.377 50.2743L237.718 57.1163ZM229.404 55.4444L227.727 62.2821L227.729 62.2825L229.404 55.4444ZM210.443 48.4005L216.549 44.8958L216.549 44.8951L210.443 48.4005ZM242.782 21.1964L241.387 28.0971L252.882 30.4209L249.528 19.183L242.782 21.1964ZM239.57 17.8858L238.715 10.8976L238.625 10.9087L238.535 10.9221L239.57 17.8858ZM237.088 18.3624L235.454 11.5143L222.403 14.6284L232.381 23.5983L237.088 18.3624ZM240.966 20.8292L239.047 27.6029L239.306 27.6765L239.571 27.7299L240.966 20.8292ZM128.194 46.5802L121.815 43.6012C120.318 46.8064 118.65 51.274 117.587 53.7502L124.056 56.5284L130.525 59.3066C132.214 55.3739 133.046 52.8299 134.573 49.5592L128.194 46.5802ZM124.056 56.5284L117.587 53.75C115.494 58.622 113.228 61.5167 110.662 63.4227C108.068 65.3498 104.563 66.7155 99.2254 67.4945L100.242 74.461L101.259 81.4276C108.009 80.4424 113.983 78.4965 119.059 74.7257C124.163 70.9338 127.759 65.7442 130.524 59.3069L124.056 56.5284ZM100.242 74.461L99.1087 67.5125C94.1319 68.3243 88.8029 69.1628 83.0799 71.7599L85.9891 78.171L88.8984 84.5821C92.6823 82.865 96.2303 82.2488 101.375 81.4095L100.242 74.461ZM85.9891 78.171L83.0804 71.7597C80.1587 73.0852 77.7606 75.0197 75.8653 76.7319C74.9023 77.6019 73.9775 78.5008 73.1493 79.3081C72.2906 80.1451 71.538 80.8812 70.7823 81.5759C67.607 84.4947 66.1035 84.9863 64.6887 84.8038L63.788 91.7862L62.8872 98.7687C70.9872 99.8136 76.7046 95.2577 80.3114 91.9421C81.2513 91.0782 82.1668 90.1815 82.9777 89.3911C83.8191 88.5709 84.5655 87.8477 85.3043 87.1803C86.8124 85.8179 87.9399 85.017 88.8979 84.5823L85.9891 78.171ZM63.788 91.7862L64.6899 84.8039C64.7879 84.8166 66.8431 85.0809 68.2413 87.2658C68.8911 88.2814 69.0862 89.2654 69.1273 89.9162C69.1656 90.5208 69.0782 90.9112 69.0666 90.9634L62.1962 89.4259L55.3258 87.8883C55.0385 89.1723 54.592 92.0595 56.381 94.8553C58.2785 97.8204 61.2869 98.562 62.886 98.7685L63.788 91.7862ZM62.1962 89.4259L67.9621 93.4657C68.046 93.346 68.1062 93.2563 68.125 93.2284C68.1386 93.2083 68.1091 93.2524 68.0694 93.3086C68.0215 93.3766 67.9372 93.4932 67.8243 93.6336C67.5754 93.9429 67.3559 94.1569 67.2949 94.2161C67.2694 94.2408 67.2529 94.2562 67.272 94.2382C67.2811 94.2296 67.315 94.1977 67.3464 94.1679L62.5058 89.0558L57.6651 83.9436C57.6442 83.9634 57.6347 83.9723 57.6072 83.9982C57.5898 84.0147 57.5435 84.0583 57.4931 84.1072C57.382 84.2149 57.1315 84.4616 56.8535 84.8071C56.7261 84.9655 56.6277 85.1011 56.5641 85.1912C56.5088 85.2696 56.4621 85.3391 56.4547 85.35C56.4316 85.3843 56.435 85.3793 56.4303 85.386L62.1962 89.4259ZM62.5058 89.0558L67.3472 94.1672C66.2611 95.1959 65.049 95.6615 64.1151 95.8494C63.2425 96.025 62.5497 95.9755 62.2073 95.9359C61.8427 95.8937 61.5889 95.8271 61.506 95.8045C61.413 95.7792 61.3739 95.7639 61.4325 95.7842C61.5092 95.8106 61.5527 95.827 61.7381 95.8932C61.8793 95.9437 62.1157 96.0275 62.3788 96.1097C62.6351 96.1897 63.0325 96.3052 63.5053 96.3948C63.9488 96.4788 64.7136 96.591 65.6423 96.5198L65.1044 89.5001L64.5665 82.4804C65.3243 82.4223 65.8946 82.5163 66.1269 82.5603C66.3883 82.6099 66.5575 82.6634 66.5753 82.6689C66.6 82.6766 66.5877 82.6735 66.4768 82.6339C66.4101 82.6101 66.198 82.5332 66.0223 82.4726C65.7409 82.3756 64.8648 82.0688 63.826 81.9486C62.9725 81.8498 60.0965 81.6406 57.6643 83.9443L62.5058 89.0558ZM65.1044 89.5001L65.6348 96.5204C66.7299 96.4377 67.9272 96.1318 69.0896 95.4519C70.138 94.8387 70.8149 94.1133 71.1053 93.7905L65.872 89.0812L60.6386 84.3718C60.7034 84.2997 61.172 83.7706 61.9807 83.2975C62.9035 82.7578 63.8299 82.536 64.574 82.4798L65.1044 89.5001ZM65.872 89.0812L70.8356 84.0883L70.6686 83.9223L65.705 88.9151L60.7413 93.908L60.9083 94.074L65.872 89.0812ZM65.705 88.9151L67.4442 82.093C66.7709 81.9214 67.1676 81.997 67.5925 82.2069C67.8455 82.332 68.6783 82.7647 69.4584 83.7351C70.4024 84.9095 71.0402 86.612 70.7969 88.5003L63.8143 87.6007L56.8317 86.701C56.5329 89.0201 57.2978 91.0816 58.484 92.5571C59.5063 93.8288 60.6963 94.5051 61.3544 94.8303C62.0719 95.1849 62.7304 95.3967 63.131 95.5146C63.5117 95.6267 63.9407 95.7309 63.9657 95.7372L65.705 88.9151ZM63.8143 87.6007L70.7968 88.5018C70.5342 90.536 69.3599 91.7218 68.8238 92.1589C68.3261 92.5648 67.9719 92.6773 68.1166 92.6197C68.2076 92.5835 68.3883 92.5224 68.7721 92.4117C68.8766 92.3816 69.2206 92.284 69.387 92.2355C69.5978 92.1739 69.9278 92.0757 70.2719 91.9525L67.8983 85.3243L65.5248 78.6962C65.5271 78.6953 65.5184 78.6956 64.8708 78.8823C64.4142 79.014 63.6771 79.2316 62.9076 79.538C62.1917 79.8231 61.0344 80.3422 59.9258 81.2461C58.7788 82.1813 57.1859 83.9567 56.8319 86.6996L63.8143 87.6007ZM67.8983 85.3243L70.27 91.9532C73.5713 90.772 75.7488 89.0399 77.4774 87.6926L73.1493 82.1397L68.8212 76.5869C67.063 77.9574 66.4702 78.3579 65.5267 78.6955L67.8983 85.3243ZM73.1493 82.1397L77.4596 87.7064C78.7831 86.6816 80.0401 85.5727 81.2227 84.3851L76.2343 79.4171L71.2458 74.4491C70.4905 75.2075 69.6867 75.9167 68.8391 76.5731L73.1493 82.1397ZM76.2343 79.4171L81.2511 84.3565C81.6925 83.9082 82.1462 83.4207 82.5091 83.0336C82.9011 82.6154 83.234 82.2635 83.5565 81.9421C83.8774 81.6223 84.1311 81.3904 84.3337 81.2239C84.5414 81.0532 84.6208 81.0134 84.5823 81.0346L81.1884 74.8663L77.7944 68.6981C76.0086 69.6807 74.5702 71.0188 73.6176 71.9681C73.1082 72.4757 72.63 72.9838 72.2362 73.4039C71.8132 73.8551 71.5065 74.1841 71.2175 74.4777L76.2343 79.4171ZM81.1884 74.8663L84.5829 81.0342C84.9497 80.8324 85.7254 80.536 87.0819 80.1963C88.4795 79.8464 89.6678 79.6349 91.2999 79.28L89.8036 72.4005L88.3073 65.521C87.2565 65.7496 85.313 66.1239 83.6617 66.5374C81.9692 66.9612 79.7788 67.606 77.7938 68.6984L81.1884 74.8663ZM89.8036 72.4005L91.2999 79.28C98.0479 77.8123 104.872 76.4263 112.12 72.0772L108.498 66.0401L104.876 60.0031C99.9035 62.9864 95.3175 63.9963 88.3073 65.521L89.8036 72.4005ZM108.498 66.0401L112.119 72.0776C117.48 68.8624 121.155 64.7932 124.185 61.1852C127.36 57.4042 129.608 54.4458 132.745 51.7698L128.177 46.4132L123.608 41.0566C119.32 44.7141 116.049 48.9774 113.402 52.1306C110.609 55.4569 108.158 58.0345 104.876 60.0027L108.498 66.0401ZM128.177 46.4132L121.175 47.1502L121.193 47.3172L128.194 46.5802L135.196 45.8432L135.178 45.6762L128.177 46.4132ZM206.706 6.72959L204.637 13.4592C208.169 14.5447 210.819 14.9369 213.571 14.8782C214.819 14.8516 215.997 14.7329 217.02 14.6271C218.089 14.5165 219.106 14.4061 220.356 14.3226L219.887 7.29795L219.418 0.273264C217.861 0.377182 216.571 0.517765 215.571 0.621252C214.525 0.729487 213.873 0.787934 213.271 0.80079C212.322 0.821038 211.188 0.741783 208.774 0L206.706 6.72959ZM219.887 7.29795L220.68 14.2934C221.434 14.2079 221.551 14.3125 221.35 14.2491C221.15 14.1861 221.103 14.0988 221.456 14.3726C222.068 14.8469 224.809 17.5487 229.172 18.4882L230.654 11.6056L232.136 4.72296C231.739 4.63741 232.141 4.83988 230.082 3.24387C229.1 2.48254 227.634 1.46728 225.588 0.821566C223.542 0.175464 221.385 0.0424838 219.093 0.302508L219.887 7.29795ZM230.654 11.6056L229.172 18.4882C233.218 19.3592 235.783 20.076 238.224 21.6697L242.073 15.7745L245.922 9.8793C241.128 6.7495 236.31 5.62143 232.136 4.72293L230.654 11.6056ZM242.073 15.7745L238.224 21.6692C238.104 21.5908 238.116 21.4827 238.666 22.3232C239.129 23.0312 240.321 25.0489 242.345 26.7232L246.833 21.2989L251.321 15.8747C251.336 15.8872 251.298 15.8627 251.174 15.6984C250.994 15.4595 250.862 15.2468 250.451 14.6176C249.725 13.5072 248.392 11.4924 245.923 9.87984L242.073 15.7745ZM246.833 21.2989L242.39 26.7603C246.048 29.736 249.915 32.5427 253.424 35.1687L257.642 29.5323L261.861 23.8959C258.122 21.0977 254.642 18.5756 251.276 15.8375L246.833 21.2989ZM257.642 29.5323L253.426 35.1706C253.602 35.3023 253.778 35.4262 253.895 35.5092C254.038 35.6102 254.123 35.6691 254.23 35.7459C254.437 35.8934 254.523 35.9619 254.55 35.9851C254.607 36.0333 254.386 35.861 254.101 35.4775C253.947 35.2702 253.708 34.9126 253.491 34.4095C253.272 33.8993 253.042 33.1601 253.006 32.2412L260.041 31.9679L267.076 31.6946C266.989 29.457 265.98 27.8566 265.407 27.0839C264.783 26.2438 264.101 25.6218 263.654 25.2429C263.177 24.839 262.716 24.5031 262.41 24.2848C262.261 24.1787 262.098 24.0643 262.012 24.0036C261.961 23.9676 261.925 23.9416 261.896 23.9211C261.867 23.9003 261.857 23.8926 261.859 23.8941L257.642 29.5323ZM260.041 31.9679L253.707 28.8936C254.02 28.2494 254.378 27.8019 254.617 27.5386C254.861 27.2703 255.07 27.0979 255.18 27.0121C255.295 26.9222 255.372 26.8745 255.385 26.8662C255.401 26.8562 255.387 26.8654 255.334 26.894C255.215 26.9575 255.045 27.0402 254.767 27.1683C254.7 27.1991 254.633 27.2295 254.559 27.2636C254.488 27.2962 254.407 27.3331 254.327 27.37C254.174 27.4405 253.972 27.5346 253.766 27.6374L256.902 33.9405L260.039 40.2437C260.136 40.1953 260.236 40.1515 260.658 39.9573C260.988 39.8051 261.471 39.5799 261.974 39.3108C262.456 39.0531 263.14 38.6594 263.829 38.1236C264.433 37.653 265.59 36.6582 266.375 35.0422L260.041 31.9679ZM256.902 33.9405L253.732 27.6545C253.722 27.6593 253.468 27.8948 251.987 27.4373C251.221 27.2005 250.37 26.8539 249.243 26.3669C248.231 25.93 246.842 25.3096 245.489 24.8181L243.086 31.4356L240.683 38.0532C241.531 38.3612 242.392 38.7458 243.66 39.2935C244.812 39.7911 246.272 40.4088 247.83 40.8903C250.999 41.8695 255.45 42.5579 260.073 40.2266L256.902 33.9405ZM243.086 31.4356L245.489 24.8181C241.782 23.4722 235.799 21.3013 230.037 21.2757C227.011 21.2623 223.562 21.8232 220.378 23.7741C217.09 25.7877 214.727 28.8899 213.317 32.7989L219.94 35.1866L226.563 37.5744C227.045 36.2392 227.544 35.8964 227.733 35.781C228.024 35.6027 228.663 35.3504 229.975 35.3562C232.891 35.3692 236.59 36.567 240.683 38.0532L243.086 31.4356ZM219.94 35.1866L226.439 32.4776C226.337 32.2334 226.312 32.1186 226.308 32.1005C226.306 32.0903 226.307 32.0934 226.308 32.1056C226.308 32.1109 226.309 32.1161 226.309 32.1206C226.309 32.1251 226.309 32.1274 226.309 32.1267C226.309 32.1007 226.315 31.8377 226.615 30.8142L219.859 28.8341L213.103 26.854C212.708 28.2034 212.262 29.9354 212.23 31.9018C212.197 34.0054 212.635 35.9597 213.442 37.8957L219.94 35.1866ZM219.859 28.8341L215.012 23.7283C212.803 25.8251 211.265 28.127 210.314 30.7827C209.42 33.28 209.172 35.7611 209.045 37.8923L216.073 38.3116L223.101 38.7309C223.208 36.9348 223.371 36.0849 223.57 35.5291C223.713 35.1317 223.95 34.6585 224.707 33.9398L219.859 28.8341ZM216.073 38.3116L221.564 33.905C220.721 32.8545 220.811 32.7793 220.893 33.0285C220.909 33.0772 220.88 33.0127 220.82 32.6255C220.748 32.163 220.696 31.7027 220.571 30.7492L213.591 31.6632L206.61 32.5772C206.762 33.7412 206.944 35.6811 207.514 37.4191C208.206 39.5262 209.325 41.1511 210.582 42.7182L216.073 38.3116ZM213.591 31.6632L206.802 29.7986C206.442 31.1078 206.128 32.4879 205.89 33.4621C205.627 34.5399 205.41 35.338 205.165 36.0209C204.73 37.2322 204.286 37.8734 203.563 38.4364L207.889 43.9913L212.214 49.5462C215.592 46.9161 217.351 43.7513 218.418 40.7759C218.924 39.3655 219.283 37.975 219.57 36.7981C219.882 35.5176 220.092 34.5767 220.38 33.5277L213.591 31.6632ZM207.889 43.9913L214.927 44.1657C214.973 42.3097 215.025 39.1255 213.504 35.8737L207.127 38.8565L200.75 41.8393C200.75 41.8405 200.752 41.8442 200.755 41.8518C200.757 41.8596 200.762 41.8743 200.769 41.898C200.781 41.9455 200.801 42.0353 200.819 42.1858C200.858 42.5247 200.871 42.9898 200.85 43.8169L207.889 43.9913ZM207.127 38.8565L200.098 38.4559C199.977 40.5774 199.653 40.9939 198.461 44.6341L205.152 46.8243L211.843 49.0146C212.664 46.5077 213.901 43.7295 214.156 39.2572L207.127 38.8565ZM205.152 46.8243L198.462 44.6334C198.039 45.9248 197.553 48.0227 198.156 50.4058C198.82 53.0259 200.486 54.8195 202.179 55.9479L206.084 50.0899L209.989 44.232C210.445 44.536 211.414 45.4019 211.806 46.9479C211.974 47.6128 211.969 48.1662 211.934 48.5169C211.917 48.6897 211.892 48.8191 211.874 48.8977C211.865 48.9378 211.857 48.9677 211.851 48.9866C211.849 48.9962 211.847 49.0034 211.845 49.0081C211.844 49.0128 211.843 49.0152 211.843 49.0152L205.152 46.8243ZM206.084 50.0899L202.185 55.9519C204.97 57.8049 208.242 58.9623 210.293 59.7058L212.692 53.087L215.092 46.4682C212.729 45.6117 211.114 44.9804 209.983 44.228L206.084 50.0899ZM212.692 53.087L210.302 59.7093C214.299 61.1516 218.333 62.4813 222.403 63.6984L224.42 56.9532L226.437 50.208C222.617 49.0659 218.832 47.8181 215.082 46.4647L212.692 53.087ZM224.42 56.9532L222.38 63.6915C225.109 64.5179 227.542 65.1706 229.578 65.9407L232.068 59.3556L234.559 52.7705C231.929 51.7759 228.574 50.855 226.46 50.215L224.42 56.9532ZM232.068 59.3556L229.332 65.8424C229.933 66.0959 230.645 66.4958 231.627 67.1236C232.376 67.6021 233.875 68.6125 234.977 69.282L238.631 63.2638L242.284 57.2455C241.26 56.6238 240.632 56.1672 239.208 55.2579C238.019 54.498 236.513 53.5894 234.804 52.8687L232.068 59.3556ZM238.631 63.2638L234.979 69.2831C241.192 73.0522 247.51 76.1923 254.357 78.7889L256.853 72.2062L259.35 65.6234C253.366 63.3538 247.818 60.6026 242.282 57.2444L238.631 63.2638ZM256.853 72.2062L254.356 78.7888C253.54 78.4792 253.132 78.0772 253.001 77.9396C252.84 77.7714 252.602 77.4741 252.406 76.958C252.226 76.4806 251.871 75.2143 252.426 73.6166C253.063 71.7869 254.421 70.8493 255.264 70.5098L257.894 77.0401L260.525 83.5705C262.679 82.7027 264.774 80.9768 265.726 78.2419C266.596 75.739 266.134 73.4505 265.576 71.9768C264.575 69.3284 262.304 66.7439 259.35 65.6235L256.853 72.2062ZM257.894 77.0401L255.263 70.5101C255.305 70.493 255.675 70.3441 256.284 70.2828C256.94 70.2168 257.923 70.2499 259.014 70.6926C260.126 71.1432 260.909 71.8393 261.406 72.4462C261.852 72.9911 262.061 73.4567 262.104 73.5509C262.132 73.6135 262.162 73.6934 262.037 73.3665C261.957 73.1557 261.766 72.654 261.487 72.1068C261.198 71.5405 260.728 70.7493 259.983 69.9645C259.202 69.1431 258.196 68.4101 256.956 67.9197L254.367 74.4669L251.779 81.0141C249.982 80.3038 249.173 78.9538 248.946 78.5096C248.851 78.3245 248.814 78.2085 248.879 78.381C248.901 78.4375 249.07 78.8984 249.256 79.3137C249.6 80.0806 250.768 82.543 253.724 83.7415C256.581 84.9 259.187 84.1097 260.526 83.5702L257.894 77.0401ZM254.367 74.4669L247.742 72.0849C247.061 73.9784 247.323 75.6129 247.455 76.2732C247.529 76.6428 247.615 76.9473 247.659 77.099C247.683 77.1799 247.705 77.2555 247.717 77.2949C247.732 77.3447 247.737 77.3607 247.741 77.3734C247.786 77.5278 247.319 76.2001 247.832 74.5409L254.558 76.6202L261.285 78.6995C262.076 76.1387 261.422 73.9906 261.256 73.4218C261.233 73.3441 261.211 73.2712 261.2 73.2337C261.193 73.2113 261.189 73.1978 261.185 73.1862C261.182 73.1754 261.181 73.1716 261.181 73.1723C261.181 73.1731 261.184 73.1811 261.187 73.1944C261.191 73.2078 261.197 73.2287 261.204 73.2557C261.217 73.3078 261.239 73.3966 261.262 73.5123C261.305 73.7278 261.376 74.1489 261.374 74.6976C261.372 75.2677 261.29 76.0194 260.992 76.8489L254.367 74.4669ZM254.558 76.6202L249.367 71.8646C250.825 70.2726 252.541 70.0479 253.095 70.0157C253.662 69.9826 253.941 70.0808 253.748 70.0339C253.619 70.0024 253.396 69.9339 253.054 69.8082C252.892 69.7485 252.729 69.6855 252.544 69.6137C252.389 69.5531 252.145 69.4573 251.936 69.3796L249.477 75.9767L247.019 82.5737C247.159 82.626 248.877 83.3391 250.41 83.7132C251.217 83.9099 252.483 84.1558 253.914 84.0725C255.333 83.9898 257.789 83.5167 259.75 81.3758L254.558 76.6202ZM249.477 75.9767L251.937 69.3799C251.975 69.3942 251.804 69.3375 251.035 68.7723C250.779 68.5839 250.172 68.126 249.726 67.807C249.205 67.4341 248.538 66.9808 247.767 66.5544L244.362 72.7169L240.958 78.8794C241.308 79.0729 241.569 79.2886 242.691 80.1139C243.57 80.7611 245.084 81.8525 247.018 82.5734L249.477 75.9767ZM244.362 72.7169L247.761 66.5515C246.714 65.9739 245.642 65.4297 244.738 64.9645C243.79 64.4765 242.975 64.0499 242.213 63.609L238.687 69.7032L235.162 75.7974C236.251 76.4274 237.337 76.9916 238.296 77.4847C239.298 78.0005 240.139 78.4277 240.963 78.8823L244.362 72.7169ZM238.687 69.7032L242.232 63.6205C236.58 60.3262 230.352 56.7915 221.269 57.4406L221.77 64.463L222.272 71.4854C226.688 71.1698 229.604 72.5579 235.142 75.7859L238.687 69.7032ZM221.77 64.463L221.269 57.4406C219.703 57.5524 218.176 57.7488 216.817 57.9325C215.394 58.1247 214.193 58.297 212.973 58.425L213.708 65.4269L214.443 72.4287C215.933 72.2724 217.435 72.0576 218.702 71.8864C220.032 71.7066 221.182 71.5633 222.272 71.4854L221.77 64.463ZM213.708 65.4269L217.678 71.2412C219.245 70.1713 220.748 68.6902 221.429 68.0486L216.6 62.9259L211.77 57.8031C210.683 58.8282 210.157 59.3264 209.738 59.6125L213.708 65.4269ZM216.6 62.9259L216.278 55.8929C213.129 56.0367 209.908 57.0746 208.736 57.34L210.293 64.2062L211.849 71.0723C215.2 70.3128 215.416 70.0276 216.921 69.9589L216.6 62.9259ZM210.293 64.2062L208.738 57.3397C207.854 57.5399 206.935 57.6613 205.593 57.8306L206.475 64.8155L207.356 71.8005C208.595 71.6441 210.188 71.4485 211.848 71.0726L210.293 64.2062ZM206.475 64.8155L210.263 70.7494C212.253 69.4788 214.04 67.6292 214.872 66.8009L209.907 61.8097L204.942 56.8185C203.724 58.0295 203.114 58.608 202.686 58.8816L206.475 64.8155ZM209.907 61.8097L210.048 54.7708C206.365 54.6969 202.301 55.5694 200.385 55.8127L201.271 62.797L202.158 69.7812C206.222 69.2653 207.408 68.8013 209.766 68.8486L209.907 61.8097ZM201.271 62.797L200.386 55.8125C197.724 56.15 196.109 55.9453 192.606 55.3836L191.491 62.3351L190.376 69.2865C194.101 69.8839 197.387 70.386 202.157 69.7814L201.271 62.797ZM191.491 62.3351L192.666 69.2767C194.744 68.9251 196.635 68.3206 198.455 67.3125C200.205 66.343 201.609 65.1514 202.818 64.0202L198.01 58.878L193.201 53.7359C192.332 54.5482 191.907 54.8432 191.632 54.9954C191.427 55.1089 191.098 55.2611 190.316 55.3934L191.491 62.3351ZM198.01 58.878L197.173 51.8876C196.288 51.9935 195.412 52.1477 194.774 52.257C194.067 52.378 193.557 52.4616 193.082 52.5141L193.855 59.5118L194.629 66.5095C195.574 66.405 196.471 66.252 197.151 66.1355C197.899 66.0073 198.39 65.9231 198.846 65.8684L198.01 58.878ZM193.855 59.5118L193.084 52.5138C190.508 52.7977 188.799 52.5147 185.4 51.7219L183.801 58.5782L182.202 65.4345C186.006 66.3219 189.611 67.0623 194.626 66.5098L193.855 59.5118ZM183.801 58.5782L184.834 65.5422C188.03 65.0678 190.954 63.7923 193.241 61.6193C195.53 59.445 196.824 56.7089 197.294 53.9316C198.205 48.5504 196.097 43.055 192.425 39.2133L187.336 44.0782L182.247 48.9432C182.747 49.4663 183.082 50.047 183.263 50.5736C183.448 51.1114 183.431 51.4628 183.411 51.5821C183.398 51.6573 183.412 51.5356 183.543 51.4108C183.673 51.2872 183.563 51.4961 182.767 51.6142L183.801 58.5782ZM187.336 44.0782L180.784 46.6543C181.408 48.2429 181.365 48.9236 181.362 48.9575C181.362 48.9575 181.362 48.9568 181.362 48.9555C181.362 48.9542 181.362 48.9523 181.363 48.9497C181.363 48.9446 181.365 48.937 181.366 48.9272C181.37 48.9073 181.376 48.8791 181.386 48.8438C181.407 48.7711 181.44 48.6791 181.491 48.5763C181.6 48.3562 181.741 48.1861 181.858 48.0795C182.054 47.8995 181.964 48.0889 181.123 48.2825C180.305 48.4706 179.108 48.5845 177.515 48.5277L177.265 55.5636L177.014 62.5994C181.375 62.7548 187.247 62.2353 191.365 58.466C196.426 53.8333 196.14 47.2298 193.888 41.5022L187.336 44.0782ZM177.265 55.5636L180.469 61.8322C181.785 61.1595 183.848 60.1103 185.603 58.4343C187.616 56.5125 188.915 54.1165 189.545 51.212L182.665 49.7198L175.785 48.2276C175.727 48.4923 175.686 48.5317 175.73 48.4513C175.781 48.3579 175.849 48.2797 175.879 48.2502C175.888 48.242 175.801 48.3273 175.494 48.5161C175.168 48.7168 174.741 48.9469 174.06 49.295L177.265 55.5636ZM182.665 49.7198L178.787 43.8441C176.778 45.17 175.729 45.7033 174.852 45.9806C174.092 46.2205 173.065 46.3914 171.04 46.2362L170.502 53.256L169.964 60.2757C173.235 60.5263 176.16 60.334 179.094 59.4069C181.91 58.5171 184.295 57.0795 186.543 55.5956L182.665 49.7198ZM170.502 53.256L172.479 60.0131C174.678 59.3697 176.724 58.4364 178.596 56.947C180.423 55.4925 181.733 53.7833 182.812 52.1066L176.891 48.297L170.971 44.4874C170.332 45.4801 169.993 45.7983 169.827 45.93C169.706 46.0266 169.416 46.2382 168.525 46.4988L170.502 53.256ZM176.891 48.297L173.746 41.9985C171.404 43.1679 169.725 43.727 168.224 43.9594C166.76 44.186 165.096 44.159 162.74 43.6782L161.332 50.5763L159.924 57.4744C163.537 58.2117 166.92 58.4096 170.378 57.8743C173.798 57.3448 176.914 56.1551 180.037 54.5955L176.891 48.297ZM161.332 50.5763L163.367 57.3159C165.179 56.7688 166.792 56.0642 168.349 54.9622C169.759 53.964 170.887 52.7893 171.767 51.8744L166.69 46.9962L161.614 42.118C160.647 43.1246 160.379 43.3525 160.213 43.4702C160.193 43.4842 160.05 43.6089 159.296 43.8366L161.332 50.5763ZM166.69 46.9962L166.18 39.9744C165.526 40.0219 164.812 40.14 164.577 40.1787L165.717 47.1261L166.857 54.0735C166.97 54.0549 167.08 54.0377 167.174 54.0245C167.22 54.0181 167.249 54.0144 167.264 54.0127C167.282 54.0106 167.257 54.0139 167.201 54.018L166.69 46.9962ZM165.717 47.1261L164.582 40.1778C161.913 40.6136 160.632 40.3865 159.719 40.0587C158.575 39.6478 157.235 38.8079 154.636 36.7261L150.234 42.2208L145.833 47.7155C148.508 49.8591 151.424 52.0408 154.96 53.3107C158.728 54.6637 162.551 54.7766 166.851 54.0744L165.717 47.1261ZM150.234 42.2208L154.635 36.7253C150.326 33.2745 143.468 30.146 136.418 31.1969L137.456 38.1603L138.494 45.1236C140.402 44.8393 143.416 45.7805 145.834 47.7163L150.234 42.2208ZM137.456 38.1603L140.307 44.5976C143.33 43.2587 145.742 43.297 150.167 44.4632L151.961 37.6554L153.755 30.8475C147.777 29.2719 141.733 28.5665 134.605 31.7229L137.456 38.1603ZM151.961 37.6554L156.682 32.433C149.54 25.9753 138.516 25.1422 130.476 29.89L134.056 35.9522L137.635 42.0145C140.569 40.2823 144.836 40.7052 147.239 42.8778L151.961 37.6554ZM134.056 35.9522L130.476 29.8901C123.91 33.7676 119.448 39.9814 116.121 44.0978L121.598 48.5226L127.074 52.9474C131.192 47.85 133.815 44.2706 137.636 42.0144L134.056 35.9522ZM121.598 48.5226L116.121 44.0979C112.276 48.8569 108.776 52.9661 104.654 56.0857L108.903 61.6993L113.152 67.3129C118.8 63.038 123.255 57.674 127.074 52.9472L121.598 48.5226ZM108.903 61.6993L104.7 56.0516C99.2678 60.0945 92.3279 61.8882 84.2205 63.1354L85.2909 70.0938L86.3613 77.0523C94.8994 75.7389 104.764 73.5568 113.107 67.347L108.903 61.6993ZM85.2909 70.0938L84.2202 63.1354C79.8561 63.807 74.8203 64.5814 69.7128 66.7485L72.4628 73.2296L75.2127 79.7106C78.4808 78.324 81.8495 77.7466 86.3617 77.0523L85.2909 70.0938ZM72.4628 73.2296L69.7123 66.7488C65.0075 68.7455 61.4455 71.9133 58.7948 74.2382C55.8957 76.7809 53.95 78.4407 51.6451 79.4665L54.5077 85.8985L57.3703 92.3306C61.9609 90.2876 65.4808 87.1033 68.0795 84.824C70.9266 82.3268 72.8944 80.6946 75.2133 79.7104L72.4628 73.2296ZM54.5077 85.8985L52.1611 79.2608C51.9316 79.3419 51.6019 79.4416 51.2391 79.5217C50.8677 79.6036 50.5703 79.6411 50.3777 79.6494C50.1499 79.6592 50.29 79.6195 50.6649 79.7288C51.0838 79.8509 51.9929 80.2274 52.7615 81.2143L47.2069 85.5401L41.6524 89.866C44.6121 93.6663 49.1086 93.7981 50.9864 93.7169C53.3057 93.6165 55.4792 93.0224 56.8543 92.5363L54.5077 85.8985ZM47.2069 85.5401L52.7612 81.2139C53.6058 82.2982 53.9603 83.6938 53.7261 85.0598L46.787 83.8702L39.8479 82.6807C39.411 85.2291 40.071 87.8357 41.6526 89.8663L47.2069 85.5401ZM46.787 83.8702L53.7207 85.0909C53.6459 85.5154 53.4352 86.3162 52.8588 87.1692C52.5988 87.554 52.3393 87.8373 52.1494 88.0227C52.0574 88.1126 51.9817 88.1796 51.933 88.2212C51.8849 88.2623 51.8541 88.2865 51.8512 88.2888L47.5038 82.7511L43.1564 77.2134C42.7801 77.5088 41.9304 78.193 41.1922 79.2854C40.3856 80.4789 40.0247 81.6758 39.8533 82.6495L46.787 83.8702ZM47.5038 82.7511L51.8454 88.2934C51.4521 88.6015 50.8434 88.992 50.0159 89.2658C49.1508 89.5519 48.2285 89.6493 47.32 89.5511C46.4512 89.4572 45.7774 89.2048 45.3492 89.0047C44.9403 88.8136 44.6667 88.6272 44.5995 88.5812C44.5638 88.5567 44.4885 88.502 44.6765 88.6394C44.7952 88.7262 45.0599 88.9189 45.3893 89.1234C46.0701 89.546 47.2658 90.1741 48.8847 90.3728L49.7421 83.3849L50.5995 76.3969C51.7321 76.5359 52.5115 76.9716 52.8147 77.1598C52.9553 77.247 53.0408 77.3121 52.9861 77.2721C52.9744 77.2636 52.962 77.2545 52.9381 77.2369C52.9174 77.2217 52.8859 77.1985 52.8524 77.174C52.7865 77.126 52.6811 77.0497 52.5565 76.9644C52.2042 76.723 50.8296 75.7678 48.833 75.552C46.4425 75.2936 44.4762 76.1795 43.1622 77.2088L47.5038 82.7511ZM49.7421 83.3849L48.8758 90.3717C50.7948 90.6096 52.164 90.4079 53.1089 90.2895L52.2333 83.3038L51.3576 76.3182C51.0923 76.3514 50.9427 76.3704 50.8045 76.3857C50.6812 76.3993 50.6326 76.4023 50.6202 76.4029C50.6154 76.4032 50.6309 76.4024 50.652 76.4032C50.671 76.4038 50.6612 76.4046 50.6083 76.398L49.7421 83.3849ZM52.2333 83.3038L54.7866 76.7428C54.3936 76.5899 53.8192 76.4026 53.7159 76.3675C53.5946 76.3264 53.5064 76.2954 53.4361 76.2693C53.3651 76.2429 53.337 76.2307 53.3399 76.232C53.343 76.2333 53.3602 76.2409 53.3893 76.2552C53.418 76.2692 53.465 76.2931 53.5265 76.3277C53.6355 76.389 53.8677 76.527 54.1541 76.7601C54.5892 77.1142 56.1122 78.4783 56.3449 80.981L49.3349 81.6329L42.3248 82.2848C42.5983 85.2261 44.4041 86.9795 45.2654 87.6805C46.2006 88.4417 47.1544 88.8947 47.69 89.1293C48.2861 89.3905 48.8513 89.5861 49.1936 89.7022C49.2844 89.733 49.371 89.762 49.4418 89.7857C49.5174 89.811 49.5723 89.8294 49.6226 89.8464C49.7386 89.8857 49.7338 89.8858 49.6799 89.8648L52.2333 83.3038ZM49.3349 81.6329L56.3449 80.9812C56.4244 81.8357 56.3006 82.7859 55.9029 83.7026C55.5206 84.5838 54.9933 85.1876 54.5844 85.5562C53.8816 86.1898 53.3202 86.3182 53.5575 86.2397C53.6993 86.1928 53.9624 86.1263 54.502 86.017C54.6989 85.9771 55.0738 85.9035 55.3532 85.844C55.6293 85.7851 56.1172 85.6778 56.6275 85.5154L54.4921 78.8067L52.3567 72.0981C52.5052 72.0508 52.5883 72.038 51.7067 72.2166C51.1246 72.3345 50.1422 72.5382 49.1332 72.8722C48.2197 73.1745 46.6022 73.7945 45.1565 75.0979C43.4344 76.6502 42.0335 79.1512 42.3248 82.2846L49.3349 81.6329ZM54.4921 78.8067L56.6291 85.5149C60.3898 84.3168 63.6801 82.0946 66.0423 80.1687L61.5936 74.712L57.145 69.2553C55.4763 70.6157 53.7622 71.6503 52.3551 72.0986L54.4921 78.8067ZM61.5936 74.712L66.0443 80.1671C67.5639 78.9273 68.9879 77.5738 70.3028 76.1196L65.0809 71.3976L59.8591 66.6755C59.0203 67.6031 58.1119 68.4664 57.143 69.2569L61.5936 74.712ZM65.0809 71.3976L70.289 76.1348C70.5542 75.8434 70.796 75.546 70.9717 75.3256C71.1584 75.0912 71.3512 74.8414 71.5224 74.6186C71.8919 74.1377 72.204 73.7282 72.5187 73.34C72.6695 73.1542 72.7967 73.0034 72.902 72.8846C72.9536 72.8263 72.9945 72.7818 73.0253 72.7493C73.0566 72.7163 73.0712 72.7023 73.07 72.7035C73.0697 72.7038 73.0418 72.7307 72.9879 72.7759C72.9362 72.8194 72.8352 72.9011 72.6884 73.0016C72.5463 73.0989 72.3098 73.2494 71.9873 73.4041C71.6724 73.5551 71.1749 73.7588 70.5247 73.888L69.1532 66.9825L67.7817 60.0771C66.3103 60.3693 65.2464 61.0321 64.7324 61.3841C64.1406 61.7894 63.66 62.2182 63.3184 62.5462C62.6374 63.2 62.0267 63.9231 61.5822 64.4712C61.1214 65.0394 60.669 65.6336 60.3578 66.0386C59.9599 66.5564 59.8548 66.6801 59.8729 66.6603L65.0809 71.3976ZM69.1532 66.9825L70.5278 73.8874C75.3552 72.9264 84.2798 71.4127 89.8661 64.6416L84.4354 60.1612L79.0048 55.6808C77.1716 57.9028 73.7763 58.8838 67.7787 60.0777L69.1532 66.9825ZM84.4354 60.1612L84.8252 53.1317C81.8677 52.9677 79.4769 53.1645 76.5504 53.8307L78.1132 60.6954L79.6759 67.5601C81.3146 67.187 82.3907 67.099 84.0456 67.1908L84.4354 60.1612ZM78.1132 60.6954L83.4234 65.3179C85.0373 63.4639 86.5848 62.5775 89.7853 61.6225L87.7724 54.8761L85.7594 48.1297C80.9677 49.5594 76.7291 51.5626 72.8029 56.0729L78.1132 60.6954ZM87.7724 54.8761L89.348 48.0143C85.1559 47.0517 81.465 47.2399 77.8149 47.8844L79.039 54.8175L80.263 61.7506C82.6481 61.3295 84.3498 61.3137 86.1967 61.7378L87.7724 54.8761ZM79.039 54.8175L83.9198 59.8912C85.2242 58.6364 86.1271 58.0646 86.9802 57.664C87.9931 57.1884 89.1911 56.8248 91.5375 56.1887L89.6952 49.3937L87.8529 42.5986C85.6476 43.1965 83.2875 43.8422 80.9953 44.9186C78.5432 46.07 76.3937 47.5931 74.1581 49.7437L79.039 54.8175ZM89.6952 49.3937L90.7012 42.4256C81.8022 41.1408 73.7377 43.7341 67.0795 49.3385L71.6132 54.7247L76.1469 60.1109C79.9415 56.917 84.0284 55.6889 88.6892 56.3617L89.6952 49.3937ZM71.6132 54.7247L67.0798 49.3382C61.0768 54.3905 60.1391 56.133 55.8789 56.8188L56.9979 63.7696L58.117 70.7205C67.342 69.2353 72.287 63.3595 76.1466 60.1112L71.6132 54.7247ZM56.9979 63.7696L60.6576 69.784C64.388 67.5142 66.6413 65.0435 68.6131 61.2411L62.3632 58.0001L56.1132 54.7591C55.2942 56.3384 54.8048 56.8629 53.3383 57.7552L56.9979 63.7696ZM62.3632 58.0001L58.639 52.0254C56.0566 53.6351 54.3698 54.3413 52.9034 54.6383C51.5046 54.9216 49.7852 54.9366 47.0242 54.3095L45.4647 61.1749L43.9052 68.0403C48.0178 68.9745 51.8267 69.2228 55.6983 68.4387C59.5023 67.6683 62.828 66.0064 66.0873 63.9748L62.3632 58.0001ZM45.4647 61.1749L46.61 68.1215C48.7562 67.7676 50.8057 67.2101 52.8305 66.1198C54.8066 65.0557 56.3648 63.6927 57.7674 62.3128L52.83 57.294L47.8926 52.2752C46.8741 53.2772 46.4205 53.5791 46.1546 53.7223C45.9374 53.8393 45.5148 54.0313 44.3195 54.2284L45.4647 61.1749ZM52.83 57.294L50.9527 50.5086C47.9589 51.3369 46.1116 51.5301 44.679 51.3711C43.3954 51.2286 41.9272 50.7455 39.8584 49.2329L35.703 54.9161L31.5476 60.5993C35.2013 63.2707 38.9499 64.9024 43.1259 65.3658C47.1529 65.8127 51.008 65.1029 54.7072 64.0795L52.83 57.294ZM35.703 54.9161L35.2685 61.943C37.5366 62.0833 39.7443 62.0472 42.0519 61.5638C44.3709 61.0781 46.4262 60.2176 48.4929 59.1227L45.1972 52.9015L41.9014 46.6802C40.5673 47.387 39.7872 47.652 39.1652 47.7823C38.5318 47.9149 37.6928 47.9854 36.1375 47.8892L35.703 54.9161ZM45.1972 52.9015L44.9883 45.8642C41.2802 45.9743 39.2352 45.6042 36.4088 44.0967L33.0956 50.3087L29.7824 56.5207C35.2863 59.4563 39.9019 60.1021 45.4061 59.9387L45.1972 52.9015ZM33.0956 50.3087L36.4076 44.096C35.4777 43.6003 33.1141 42.0026 29.9945 41.1932L28.2265 48.0079L26.4584 54.8226C26.851 54.9245 27.0966 55.0285 27.4493 55.2146C27.681 55.3369 27.9247 55.4766 28.3351 55.7125C28.717 55.932 29.2122 56.2167 29.7836 56.5213L33.0956 50.3087ZM28.2265 48.0079L30.2341 54.7559C31.5841 54.3543 32.1872 54.297 32.6711 54.2866C33.4565 54.2698 34.1508 54.3558 36.3553 54.5326L36.9179 47.5147L37.4804 40.4969C35.95 40.3743 34.0962 40.1721 32.3685 40.2093C30.3392 40.2529 28.4641 40.5919 26.2188 41.2599L28.2265 48.0079ZM36.9179 47.5147L41.112 41.8601L40.9646 41.7507L36.7704 47.4054L32.5762 53.06L32.7237 53.1694L36.9179 47.5147ZM36.7704 47.4054L40.9034 41.7059C35.1853 37.5594 28.6495 36.0744 21.7801 37.1964L22.9149 44.1446L24.0498 51.0929C27.2792 50.5654 30.0104 51.1999 32.6374 53.1049L36.7704 47.4054ZM22.9149 44.1446L27.5805 49.4171C28.7714 48.3632 29.4129 48.1651 29.7671 48.0941C30.2334 48.0008 31.1186 47.9583 33.0693 48.4181L34.6845 41.5655L36.2996 34.713C33.4164 34.0334 30.2807 33.6312 27.0027 34.2875C23.6125 34.9663 20.7862 36.6273 18.2494 38.8722L22.9149 44.1446ZM34.6845 41.5655L39.1657 36.1355C37.2624 34.5648 35.2342 33.2731 32.713 32.2726L30.1161 38.8165L27.5193 45.3604C28.4681 45.7369 29.2461 46.2056 30.2032 46.9955L34.6845 41.5655ZM30.1161 38.8165L32.6478 32.2471C27.3016 30.1868 21.3669 30.2661 16.0778 32.4685L18.7841 38.9679L21.4904 45.4673C23.4355 44.6573 25.6182 44.6281 27.5844 45.3859L30.1161 38.8165ZM18.7841 38.9679L24.7825 42.6537C25.0813 42.1674 25.4841 41.7521 25.9626 41.438L22.0985 35.5528L18.2344 29.6677C16.0286 31.116 14.1679 33.0326 12.7857 35.2821L18.7841 38.9679ZM22.0985 35.5528L25.9434 41.4505C26.7457 40.9275 27.5429 40.6628 28.9618 40.6237L28.7675 33.586L28.5732 26.5484C25.0623 26.6453 21.6206 27.4601 18.2536 29.6551L22.0985 35.5528ZM28.7675 33.586L28.9615 40.6237C31.0678 40.5656 33.1677 41.1757 35.8241 42.4738C37.1747 43.1338 38.533 43.9008 40.1121 44.7966C41.6275 45.6563 43.3622 46.644 45.1745 47.5362L48.2841 41.2198L51.3937 34.9035C50.0158 34.2251 48.6431 33.4477 47.0601 32.5496C45.5409 31.6877 43.8097 30.7042 42.0061 29.8228C38.3539 28.0381 33.8857 26.4019 28.5734 26.5484L28.7675 33.586ZM48.2841 41.2198L45.125 47.5116C49.0235 49.469 53.16 50.9135 57.4308 51.8079L58.8739 44.9171L60.317 38.0263C57.2379 37.3814 54.2549 36.3398 51.4431 34.928L48.2841 41.2198ZM58.8739 44.9171L57.3883 51.7989C64.783 53.3952 72.4281 53.4459 79.8432 51.9479L78.4491 45.047L77.055 38.1461C71.5417 39.2598 65.8575 39.2221 60.3595 38.0353L58.8739 44.9171ZM78.4491 45.047L79.8139 51.9538C80.0363 51.9098 80.9827 51.739 81.779 51.5513C82.2961 51.4294 84.072 51.03 85.584 50.0468L81.746 44.1446L77.908 38.2424C78.2308 38.0325 78.4869 37.9133 78.6018 37.8626C78.7289 37.8066 78.8083 37.7799 78.8185 37.7764C78.8297 37.7727 78.7507 37.7986 78.5489 37.8462C78.3598 37.8907 78.1384 37.9368 77.8811 37.9871C77.7537 38.012 77.6294 38.0356 77.4955 38.0611C77.3705 38.0848 77.2221 38.113 77.0844 38.1402L78.4491 45.047ZM81.746 44.1446L88.7855 44.0358L88.7825 43.8463L81.7431 43.9552L74.7036 44.064L74.7065 44.2535L81.746 44.1446ZM81.7431 43.9552L84.9298 37.6774C83.75 37.0785 82.5795 36.8446 82.0113 36.7423C81.305 36.615 80.6038 36.5405 80.0319 36.4923C79.015 36.4065 77.6266 36.3541 77.3825 36.3399L76.9725 43.3683L76.5626 50.3966C76.8912 50.4158 77.4096 50.4375 77.7337 50.4533C78.1321 50.4726 78.5069 50.4943 78.848 50.523C79.2056 50.5532 79.4203 50.5828 79.5153 50.5999C79.5584 50.6077 79.507 50.6006 79.3889 50.567C79.2941 50.5401 78.9768 50.4464 78.5564 50.233L81.7431 43.9552ZM76.9725 43.3683L81.4147 48.8302C82.3106 48.1017 83.2276 47.7427 84.7816 47.5055C85.6556 47.372 86.5909 47.2962 87.8843 47.1934C89.0973 47.097 90.6017 46.9779 92.1911 46.7378L91.1395 39.7765L90.088 32.8151C89.0586 32.9706 88.0252 33.0572 86.7687 33.157C85.5927 33.2505 84.1272 33.3616 82.6565 33.5861C79.521 34.0648 75.9733 35.1062 72.5304 37.9063L76.9725 43.3683ZM91.1395 39.7765L92.1915 46.7378C95.2397 46.2771 97.0228 45.763 99.7637 44.6834L97.1835 38.1329L94.6033 31.5824C92.751 32.312 91.992 32.5274 90.0876 32.8152L91.1395 39.7765ZM97.1835 38.1329L98.204 31.1669C96.4134 30.9046 95.6764 30.7473 95.1062 30.5636C94.5975 30.3998 93.9725 30.1337 92.6027 29.3537L89.119 35.4718L85.6354 41.5898C87.3704 42.5777 88.954 43.3751 90.7895 43.9662C92.5635 44.5376 94.3063 44.8269 96.1629 45.0989L97.1835 38.1329ZM89.119 35.4718L88.6107 42.4937C91.7534 42.7212 94.5796 42.696 97.49 42.1068C100.39 41.5198 102.979 40.4518 105.728 39.0861L102.595 32.7813L99.4615 26.4766C97.2317 27.5847 95.8877 28.0649 94.6961 28.3061C93.5152 28.5452 92.0927 28.6283 89.6273 28.4498L89.119 35.4718ZM102.595 32.7813L103.001 25.7528C99.938 25.5756 99.2693 25.5095 96.6622 24.7874L94.7831 31.5724L92.904 38.3573C96.7695 39.4278 98.492 39.5961 102.188 39.8099L102.595 32.7813ZM94.7831 31.5724L99.5571 36.7469C100.885 35.5214 102.978 34.701 106.746 33.9636C109.843 33.3575 115.229 32.6968 119.503 31.0944L117.032 24.5021L114.561 17.9097C111.74 18.9671 108.864 19.2012 104.041 20.1451C99.8889 20.9578 94.4047 22.3426 90.0091 26.3979L94.7831 31.5724ZM117.032 24.5021L119.503 31.0944C124.169 29.3455 128.406 26.7972 131.603 25.2298L128.504 18.9083L125.405 12.5868C120.492 14.9954 118.473 16.4431 114.561 17.9097L117.032 24.5021ZM128.504 18.9083L131.629 25.2168C139.477 21.3288 147.936 18.825 156.635 17.8147L155.823 10.8214L155.011 3.82807C144.703 5.02521 134.678 7.99217 125.378 12.5998L128.504 18.9083ZM155.823 10.8214L156.599 17.8188C167.692 16.5883 175.04 18.0598 186.026 21.9049L188.351 15.2599L190.677 8.61485C178.428 4.32722 168.883 2.2892 155.047 3.82398L155.823 10.8214ZM188.351 15.2599L186.026 21.9049C189.799 23.2256 194.411 23.7818 198.67 23.7786C202.906 23.7754 207.585 23.2187 211.42 21.7537L208.908 15.1769L206.396 8.60001C204.738 9.2333 201.932 9.69553 198.659 9.69799C195.409 9.70044 192.489 9.24898 190.677 8.61482L188.351 15.2599ZM208.908 15.1769L210.425 8.30197C208.304 7.83385 207.689 7.67618 207.216 7.46772C207.038 7.38885 206.687 7.23644 205.862 6.34289L200.688 11.1173L195.514 15.8917C197.333 17.8628 199.206 19.3239 201.533 20.3504C203.566 21.2474 205.739 21.6872 207.391 22.0517L208.908 15.1769ZM200.688 11.1173L198.328 17.7502C201.293 18.8053 203.583 19.119 205.816 19.1553C206.75 19.1705 207.757 19.1341 208.43 19.1196C209.182 19.1034 209.901 19.1 210.73 19.1445L211.107 12.1144L211.485 5.08417C210.157 5.01282 209.045 5.0225 208.127 5.04222C207.129 5.06367 206.625 5.08594 206.044 5.07649C205.246 5.0635 204.482 4.99447 203.049 4.48436L200.688 11.1173ZM211.107 12.1144L210.73 19.1445C210.453 19.1297 210.341 19.0989 210.525 19.1327C210.657 19.157 210.865 19.2005 211.156 19.2688C211.736 19.4049 212.469 19.5981 213.26 19.8198C214.866 20.2705 216.415 20.7557 216.98 20.9519L219.289 14.3009L221.598 7.64982C220.668 7.3271 218.824 6.7566 217.063 6.26248C216.169 6.01183 215.224 5.76031 214.373 5.56057C213.701 5.40283 212.539 5.14081 211.485 5.08417L211.107 12.1144ZM219.289 14.3009L214.106 9.5362C213.997 9.65476 213.953 9.68014 213.968 9.66984C213.983 9.65914 213.975 9.6699 213.892 9.70343C213.788 9.74511 213.595 9.81159 213.21 9.91115C212.781 10.0219 212.365 10.1127 211.647 10.2792L213.236 17.1378L214.825 23.9964C216.962 23.5014 220.982 22.8615 224.472 19.0656L219.289 14.3009ZM213.236 17.1378L212.146 24.0932C217.81 24.9808 222.83 24.2925 228.055 21.5772L224.808 15.3302L221.562 9.08312C219.174 10.3242 217.218 10.6355 214.326 10.1823L213.236 17.1378ZM224.808 15.3302L231.109 12.188C229.93 9.82558 228.305 7.87203 226.142 6.48892C224.044 5.14731 221.923 4.65589 220.304 4.42614C218.981 4.2384 217.086 4.14755 216.469 4.09621C215.507 4.01609 214.958 3.91091 214.542 3.76686L212.239 10.42L209.937 17.0732C211.983 17.7814 213.884 18.0103 215.301 18.1283C217.063 18.275 217.474 18.2463 218.326 18.3671C218.881 18.446 218.803 18.5095 218.556 18.3516C218.244 18.1522 218.278 18.0112 218.508 18.4724L224.808 15.3302ZM212.239 10.42L214.543 3.76722C213.677 3.46741 213.389 3.28265 213.233 3.17352C212.976 2.99471 212.634 2.7029 211.688 1.75498L206.706 6.72959L201.724 11.7042C202.669 12.6508 203.787 13.7518 205.171 14.7184C206.656 15.7546 208.188 16.4678 209.936 17.0728L212.239 10.42ZM211.141 44.4308L207.164 50.2405C212.027 53.569 218.643 55.2149 224.017 56.3582C230.082 57.6486 234.845 58.369 238.562 59.5716L240.729 52.8731L242.897 46.1747C238.264 44.676 231.804 43.6193 226.947 42.5859C221.399 41.4055 217.396 40.1808 215.117 38.621L211.141 44.4308ZM240.729 52.8731L238.563 59.572C240.679 60.2561 242.868 61.3588 245.635 62.7993C248.21 64.1394 251.381 65.8254 254.719 67.0016L257.058 60.3614L259.398 53.7213C257.188 52.9424 254.958 51.7779 252.137 50.3094C249.508 48.9413 246.307 47.2774 242.895 46.1743L240.729 52.8731ZM257.058 60.3614L254.719 67.0018C258.713 68.4087 262.179 68.7338 265.122 69.1321L266.066 62.1554L267.01 55.1786C263.479 54.7007 261.711 54.536 259.398 53.7211L257.058 60.3614ZM266.066 62.1554L264.668 69.0555C264.836 69.0895 264.979 69.1253 265.095 69.16C265.213 69.1957 265.262 69.2183 265.255 69.2148C265.251 69.2134 265.126 69.1566 264.933 69.0116C264.738 68.8644 264.418 68.5843 264.106 68.1294L269.916 64.1524L275.725 60.1755C274.332 58.1396 272.449 57.0253 271.139 56.4228C269.773 55.7943 268.435 55.452 267.464 55.2553L266.066 62.1554ZM269.916 64.1524L264.105 68.1269C263.279 66.9189 263.024 65.4672 263.247 64.1765C263.447 63.017 263.978 62.2112 264.421 61.7279C265.045 61.0472 266.945 59.6107 269.673 60.5839L267.308 67.2149L264.942 73.846C269.263 75.3873 273.003 73.2039 274.801 71.2421C276.743 69.1238 278.742 64.5862 275.727 60.1779L269.916 64.1524ZM267.308 67.2149L269.657 60.5781C271.719 61.3083 272.756 62.7516 273.099 63.2816C273.497 63.8957 273.685 64.4163 273.737 64.564C273.804 64.7523 273.84 64.8897 273.825 64.8347C273.821 64.8227 273.82 64.8193 273.813 64.7924C273.808 64.7726 273.798 64.7394 273.788 64.7021C273.77 64.6381 273.729 64.4937 273.672 64.3223L266.986 66.5274L260.3 68.7326C260.247 68.5711 260.197 68.3851 260.254 68.5891C260.277 68.6721 260.355 68.9566 260.471 69.2832C260.573 69.5693 260.817 70.2194 261.281 70.9366C261.691 71.5697 262.805 73.0895 264.958 73.8517L267.308 67.2149ZM266.986 66.5274L273.117 63.0671C271.746 60.6364 269.715 59.3411 269.325 59.0489L265.105 64.6847L260.886 70.3205C261.005 70.4097 261.122 70.4956 261.205 70.5573C261.297 70.6254 261.358 70.6704 261.409 70.7095C261.513 70.7883 261.506 70.7872 261.456 70.7424C261.395 70.6877 261.286 70.5827 261.162 70.4322C261.036 70.2795 260.933 70.1261 260.855 69.9878L266.986 66.5274ZM265.105 64.6847L258.661 67.52C258.734 67.6863 258.804 67.8339 258.854 67.9398C258.898 68.0313 258.959 68.1566 258.98 68.2015C259.051 68.3486 259.052 68.3551 259.036 68.3166C259.02 68.2778 258.935 68.0698 258.86 67.7455C258.785 67.4228 258.685 66.8383 258.746 66.0848L265.764 66.6554L272.781 67.2259C272.946 65.1978 272.312 63.5793 272.063 62.9714C271.908 62.5932 271.75 62.2644 271.665 62.0889C271.547 61.8446 271.549 61.8491 271.549 61.8493L265.105 64.6847ZM265.764 66.6554L258.747 66.0829C258.765 65.8519 258.835 65.1725 259.193 64.3433C259.594 63.4139 260.268 62.4999 261.228 61.8052L265.355 67.5089L269.483 73.2125C272.221 71.2309 272.684 68.4065 272.781 67.2279L265.764 66.6554ZM265.355 67.5089L261.238 61.7979C262.148 61.1421 262.975 60.935 263.313 60.8662C263.682 60.7911 263.914 60.7939 263.917 60.7939C263.939 60.7939 263.894 60.7946 263.744 60.7811C263.55 60.7636 263.473 60.7524 263.142 60.7174L262.403 67.7188L261.664 74.7203C261.84 74.7388 262.905 74.8757 263.933 74.8745C264.66 74.8737 267.188 74.8666 269.472 73.2199L265.355 67.5089ZM262.403 67.7188L263.143 60.7175C262.199 60.6177 261.541 60.2278 258.648 58.8977L255.707 65.294L252.765 71.6904C254.233 72.3652 257.759 74.3074 261.663 74.7202L262.403 67.7188ZM255.707 65.294L258.65 58.8985C255.438 57.4202 253.737 56.8266 251.188 55.5679L248.071 61.881L244.955 68.194C247.4 69.4009 250.915 70.8387 252.764 71.6896L255.707 65.294ZM248.071 61.881L251.19 55.5691C250.455 55.2061 249.72 54.8104 248.892 54.359C248.099 53.9266 247.177 53.4193 246.245 52.9401C244.347 51.9649 242.07 50.9283 239.379 50.2748L237.718 57.1163L236.056 63.9578C237.208 64.2374 238.364 64.7213 239.81 65.4644C240.549 65.8442 241.278 66.2454 242.153 66.7222C242.993 67.18 243.943 67.6941 244.952 68.1928L248.071 61.881ZM237.718 57.1163L239.377 50.2743C237.764 49.8832 236.162 49.5977 234.809 49.3541C233.385 49.0976 232.206 48.8823 231.08 48.6064L229.404 55.4444L227.729 62.2825C229.348 62.6792 230.953 62.9669 232.313 63.2118C233.744 63.4695 234.926 63.6836 236.058 63.9583L237.718 57.1163ZM229.404 55.4444L231.081 48.6068C230.018 48.3459 225.748 47.1025 221.571 45.6814C219.496 44.9753 217.607 44.2798 216.236 43.6922C215.535 43.3916 215.124 43.1848 214.942 43.0804C214.848 43.0266 214.943 43.0726 215.135 43.2227C215.22 43.2891 215.94 43.8351 216.549 44.8958L210.443 48.4005L204.337 51.9052C205.074 53.1894 206.035 53.9808 206.457 54.3114C206.986 54.7257 207.517 55.0545 207.944 55.2988C208.803 55.7907 209.773 56.2416 210.688 56.6339C212.55 57.4319 214.834 58.2624 217.035 59.0115C221.413 60.501 226.11 61.8855 227.727 62.2821L229.404 55.4444ZM210.443 48.4005L216.549 44.8951C216.963 45.6164 217.144 46.2745 217.227 46.7255C217.31 47.1762 217.315 47.5263 217.309 47.7231C217.298 48.0871 217.242 48.2563 217.27 48.1478C217.325 47.9313 217.453 47.5874 217.641 47.1343L211.141 44.4308L204.64 41.7273C204.442 42.2039 203.953 43.3782 203.622 44.6808C203.457 45.3318 203.265 46.2608 203.234 47.3114C203.207 48.2607 203.281 50.0661 204.338 51.9059L210.443 48.4005ZM242.782 21.1964L249.528 19.183C249.489 19.0513 249.232 18.1327 249.062 17.616C248.85 16.9739 248.443 15.8431 247.659 14.7067C246.786 13.4424 245.466 12.1954 243.587 11.4557C241.813 10.7569 240.091 10.7293 238.715 10.8976L239.57 17.8858L240.425 24.8741C240.255 24.8949 239.465 24.9654 238.428 24.5572C237.288 24.1081 236.511 23.3441 236.068 22.7024C235.714 22.1885 235.621 21.8196 235.689 22.0259C235.714 22.1005 235.748 22.2135 235.81 22.4285C235.861 22.6045 235.95 22.9206 236.036 23.2098L242.782 21.1964ZM239.57 17.8858L238.535 10.9221C237.426 11.0869 236.58 11.2456 235.454 11.5143L237.088 18.3624L238.722 25.2105C239.417 25.0446 239.862 24.9602 240.606 24.8496L239.57 17.8858ZM237.088 18.3624L232.381 23.5983C232.797 23.9724 233.809 24.9418 234.817 25.6493C236.14 26.5773 237.501 27.165 239.047 27.6029L240.966 20.8292L242.885 14.0555C242.664 13.993 242.622 13.967 242.676 13.992C242.751 14.026 242.839 14.077 242.904 14.1225C242.942 14.1487 242.905 14.1283 242.707 13.9528C242.608 13.8651 242.495 13.7627 242.336 13.6182C242.187 13.4822 241.998 13.3099 241.794 13.1265L237.088 18.3624ZM240.966 20.8292L239.571 27.7299L241.387 28.0971L242.782 21.1964L244.177 14.2957L242.361 13.9285L240.966 20.8292Z" fill="var(--stroke-0, #F4F3EF)" mask="url(#path-1-outside-1_0_4)"/>
</g>
</svg>
